<?xml version="1.0" encoding="UTF-8"?>
<svg id="Layer_2" xmlns="http://www.w3.org/2000/svg" viewBox="0 0 1952.25 345.05">
  <defs>
    <style>
      .cls-1 {
        fill: #00dcf4;
      }

      .cls-1, .cls-2 {
        stroke: #e6ac2d;
        stroke-miterlimit: 10;
      }

      .cls-2 {
        fill: #000039;
      }
    </style>
  </defs>
  <g id="Grass">
    <g>
      <rect class="cls-2" x="8.85" y="2.25" width="1934.55" height="339.32"/>
      <g>
        <polygon class="cls-1" points="107.73 344.37 106.86 343.03 402.9 161.41 1326.2 161.59 1326.44 161.83 1352.24 188.06 1951.17 188.18 1951.17 189.76 1351.54 189.64 1351.3 189.4 1325.5 163.17 403.37 162.99 107.73 344.37"/>
        <polygon class="cls-1" points="1.48 338.88 .69 337.49 73.98 297.83 74.19 297.83 606.62 297.97 832.21 .66 1126.13 .69 1169.56 57.4 1386.34 57.43 1457.07 100.64 1780.6 298.28 1887.32 298.31 1887.51 298.41 1951.57 332.95 1950.78 334.34 1886.9 299.89 1780.13 299.87 1385.87 59.01 1168.74 58.98 1125.31 2.27 1083.84 2.26 1041.97 2.26 958.22 2.25 916.35 2.25 833.03 2.24 607.44 299.55 607.03 299.55 74.4 299.41 1.48 338.88"/>
        <polygon class="cls-1" points="224.18 344.34 223.23 343.06 442.38 187.87 442.64 187.87 1352.24 188.06 1504.78 343.16 1503.61 344.25 1351.54 189.64 442.91 189.45 224.18 344.34"/>
        <polygon class="cls-1" points="1736.54 344.34 1673.16 299.69 1560.71 220.44 488.86 220.2 394.39 299.3 340.64 344.3 339.58 343.1 444.85 254.96 488.26 218.62 488.56 218.62 1561.23 218.86 1737.49 343.06 1736.54 344.34"/>
        <polygon class="cls-1" points="1951.17 299.91 1886.9 299.89 1440.15 59.02 1385.88 59.01 1385.68 58.89 1366.77 47.34 1263.61 47.33 1211.56 47.32 1174.72 9.86 870.38 9.82 826.86 9.82 783.7 9.82 542.92 256.38 542.57 256.38 154.09 256.28 74.4 299.41 74.19 299.41 1.08 299.39 1.08 297.81 73.98 297.83 153.66 254.7 153.88 254.7 542.22 254.8 607.3 188.15 783 8.24 1175.41 8.28 1212.26 45.74 1263.61 45.75 1367.24 45.76 1386.34 57.43 1440.57 57.44 1440.75 57.54 1887.32 298.31 1951.17 298.33 1951.17 299.91"/>
        <polygon class="cls-1" points="1620.08 344.3 1566.39 299.62 1514.73 256.62 542.92 256.38 457.11 344.25 455.93 343.16 542.22 254.8 542.57 254.8 1515.34 255.04 1515.56 255.22 1567.45 298.42 1621.13 343.1 1620.08 344.3"/>
        <polygon class="cls-1" points="1387.14 344.18 1353.12 299.75 607.44 299.55 573.58 344.17 572.27 343.23 606.62 297.97 607.03 297.97 1353.94 298.17 1354.18 298.49 1388.44 343.23 1387.14 344.18"/>
        <polygon class="cls-1" points="1.44 283.12 .72 281.7 56.54 254.68 56.73 254.68 153.66 254.7 220.44 218.56 220.65 218.56 488.26 218.62 729.73 16.44 1228.76 16.49 1239.47 25.41 1428.45 25.43 1428.62 25.51 1951.53 277.83 1950.81 279.24 1520.93 71.82 1428.07 27.01 1238.87 26.99 1228.16 18.08 730.33 18.02 488.86 220.2 488.56 220.2 220.86 220.14 154.09 256.28 153.88 256.28 56.92 256.26 1.44 283.12"/>
        <polygon class="cls-1" points="690.05 344.07 688.62 343.34 712.92 298.42 736.26 255.27 755.82 219.1 869.66 8.67 873.77 1.08 875.2 1.82 773.89 189.1 757.26 219.84 737.7 256 714.35 299.16 690.05 344.07"/>
        <polygon class="cls-1" points="806.52 343.94 804.97 343.47 833.42 255.42 845.11 219.25 877.56 118.84 915.58 1.22 917.13 1.69 856.6 188.98 846.66 219.73 821.03 299.05 806.52 343.94"/>
        <polygon class="cls-1" points="922.96 343.78 921.35 343.62 926.07 298.77 930.62 255.6 946.9 101.14 957.41 1.38 959.03 1.54 922.96 343.78"/>
        <polygon class="cls-1" points="1037.76 343.79 1032.71 298.96 1027.86 255.79 1012.51 119.19 999.29 1.55 1000.9 1.38 1039.37 343.62 1037.76 343.79"/>
        <polygon class="cls-1" points="57.9 101.87 1.08 101.86 1.08 100.28 57.64 100.29 107.81 84.39 167.88 84.4 209.76 70.14 266.73 70.14 301.69 57.28 355.87 57.29 385.02 45.63 436.65 45.64 460.89 35.03 510.21 35.03 530.26 25.32 577.47 25.33 593.93 16.42 639.2 16.43 664.94 .64 748.89 .65 748.89 2.23 665.41 2.22 639.67 18.01 594.35 18 577.9 26.91 530.64 26.91 510.6 36.61 461.24 36.61 437 47.22 385.34 47.21 356.19 58.87 301.99 58.86 267.02 71.72 210.04 71.72 168.15 85.98 108.07 85.97 57.9 101.87"/>
        <polygon class="cls-1" points="1951.17 256.72 1514.73 256.62 1238.87 26.99 1144.65 26.98 1002.87 26.96 955.62 26.96 766.63 26.94 719.39 26.93 672.42 26.92 442.91 189.45 442.64 189.45 277.64 189.42 220.86 220.14 220.65 220.14 131.56 220.12 56.92 256.26 1.08 256.24 1.08 254.66 56.54 254.68 131.18 218.54 131.37 218.54 220.44 218.56 277.21 187.83 277.43 187.83 442.38 187.87 671.89 25.34 1239.47 25.41 1403.31 161.79 1515.34 255.04 1951.17 255.14 1951.17 256.72"/>
        <polygon class="cls-1" points="1.32 99.8 .85 98.28 47.74 84.38 107.81 84.39 152.79 70.13 209.76 70.14 247.52 57.27 301.69 57.28 333.39 45.63 385.02 45.63 411.57 35.02 460.89 35.03 483.05 25.32 530.26 25.32 548.66 16.42 593.93 16.42 609.1 8.22 696.06 8.23 706.55 .79 707.51 2.07 696.59 9.81 609.52 9.8 594.35 18 549.04 18 530.64 26.91 483.4 26.9 461.24 36.61 411.89 36.6 385.34 47.21 333.68 47.21 301.99 58.86 247.8 58.86 210.04 71.72 153.05 71.71 108.07 85.97 47.99 85.96 1.32 99.8"/>
        <polygon class="cls-1" points="1.42 237.99 .75 236.55 41.92 218.52 42.09 218.52 131.18 218.54 194.64 187.82 194.83 187.82 277.21 187.83 326.08 161.39 326.29 161.39 402.9 161.41 591.56 45.66 1212.26 45.74 1266.1 100.49 1393.27 100.51 1561.23 218.86 1650.39 218.88 1739.83 218.9 1829.27 218.92 1951.17 218.95 1951.17 220.53 1560.71 220.44 1392.74 102.09 1265.41 102.07 1211.56 47.32 1108.53 47.31 1056.84 47.3 953.48 47.29 901.8 47.28 798.45 47.27 746.78 47.26 592.03 47.24 403.37 162.99 326.5 162.97 277.64 189.42 277.43 189.42 195.02 189.4 131.56 220.12 131.37 220.12 42.27 220.1 1.42 237.99"/>
        <polygon class="cls-1" points="47.99 85.96 1.08 85.95 1.08 84.37 47.74 84.38 95.83 70.12 152.79 70.13 193.36 57.27 247.52 57.27 281.75 45.62 333.39 45.63 362.24 35.01 411.57 35.02 435.84 25.31 483.05 25.32 503.39 16.41 548.66 16.42 581.27 .63 665.17 .64 665.17 2.22 623.32 2.21 581.65 2.21 549.04 18 503.74 17.99 483.4 26.9 436.16 26.9 411.89 36.6 362.54 36.59 333.68 47.21 282.03 47.2 247.8 58.86 193.62 58.85 153.05 71.71 96.07 71.7 47.99 85.96"/>
        <polygon class="cls-1" points="87.47 9.74 1.08 9.73 1.08 8.15 87.29 8.16 121.01 .6 121.37 2.14 87.47 9.74"/>
        <polygon class="cls-1" points="1951.01 8.33 1921.68 2.35 1879.85 2.35 1879.85 .76 1921.85 .77 1921.93 .79 1951.34 6.78 1951.01 8.33"/>
        <polygon class="cls-1" points="1951 17.55 1915.26 9.92 1879.76 2.35 1837.94 2.34 1796.02 2.34 1796.02 .76 1837.94 .76 1879.94 .76 1880.02 .78 1951.35 16.01 1951 17.55"/>
        <polygon class="cls-1" points="1951.17 27.08 1948.36 27.08 1908.49 18.15 1863.13 18.15 1863.03 18.13 1795.93 2.34 1754.12 2.33 1712.21 2.33 1712.21 .75 1754.12 .75 1796.12 .76 1796.22 .78 1863.32 16.57 1908.67 16.57 1948.54 25.5 1951.17 25.5 1951.17 27.08"/>
        <polygon class="cls-1" points="1951.17 36.79 1942.36 36.79 1942.27 36.77 1901.05 27.07 1853.74 27.06 1853.64 27.04 1817.77 18.14 1772.41 18.14 1712.1 2.33 1628.4 2.32 1628.4 .74 1712.32 .75 1772.63 16.56 1817.97 16.56 1818.07 16.59 1853.95 25.48 1901.24 25.49 1901.34 25.51 1942.56 35.21 1951.17 35.21 1951.17 36.79"/>
        <polygon class="cls-1" points="1951.17 47.42 1935.81 47.42 1935.71 47.39 1892.94 36.78 1843.52 36.78 1806.44 27.06 1759.14 27.05 1759.03 27.02 1727.05 18.13 1681.7 18.13 1681.58 18.09 1628.28 2.32 1586.5 2.31 1544.6 2.31 1544.6 .73 1586.5 .73 1628.52 .74 1628.64 .77 1681.94 16.55 1727.28 16.55 1727.39 16.58 1759.37 25.47 1806.66 25.48 1843.74 35.2 1893.15 35.2 1893.24 35.23 1936.02 45.84 1951.17 45.84 1951.17 47.42"/>
        <polygon class="cls-1" points="1950.9 140.38 1950.41 140.22 1838.25 102.11 1791.35 86.18 1749.29 71.89 1544.46 2.31 1460.81 2.3 1460.81 .72 1544.74 .73 1677.54 45.84 1749.83 70.4 1791.88 84.69 1838.79 100.62 1951.44 138.89 1950.9 140.38"/>
        <polygon class="cls-1" points="1950.87 197.76 1460.65 2.3 1418.92 2.3 1377.03 2.29 1251.37 2.28 1209.48 2.28 1167.6 2.27 1167.6 .69 1209.48 .7 1251.37 .7 1377.03 .71 1418.92 .72 1460.97 .72 1951.48 196.29 1950.87 197.76"/>
        <polygon class="cls-1" points="1950.84 234.62 1475.37 27.02 1428.07 27.01 1409.59 18.1 1228.16 18.08 1218.3 9.86 1174.72 9.86 1167.25 2.27 1125.72 2.27 1125.72 .69 1167.95 .69 1175.41 8.28 1218.9 8.28 1228.76 16.49 1409.97 16.51 1428.45 25.43 1475.71 25.44 1475.87 25.51 1951.51 233.18 1950.84 234.62"/>
        <polygon class="cls-1" points="1852.99 344.37 1780.13 299.87 1353.12 299.75 1168.74 58.98 626.99 58.91 572.79 58.9 518.8 58.89 326.5 162.97 249.63 162.96 195.02 189.4 194.83 189.4 112.41 189.38 42.27 220.1 1.08 220.09 1.08 218.51 41.92 218.52 112.06 187.8 112.24 187.8 194.64 187.82 249.25 161.38 326.08 161.39 438.67 100.45 518.38 57.31 1169.56 57.4 1179.66 70.59 1353.94 298.17 1780.6 298.28 1853.85 343.03 1852.99 344.37"/>
        <polygon class="cls-1" points="1.31 82.22 .86 80.7 38.87 70.11 95.83 70.12 139.19 57.26 193.36 57.27 230.12 45.61 281.75 45.62 312.92 35.01 362.24 35.01 388.63 25.31 435.84 25.31 458.12 16.41 503.39 16.41 522.12 8.21 609.1 8.22 622.92 .73 623.71 2.11 609.52 9.8 522.47 9.79 503.74 17.99 458.44 17.99 436.16 26.9 388.92 26.89 362.54 36.59 313.19 36.59 282.03 47.2 230.38 47.19 193.62 58.85 139.44 58.84 96.07 71.7 39.1 71.69 1.31 82.22"/>
        <polygon class="cls-1" points="39.1 71.69 1.08 71.69 1.08 70.11 38.87 70.11 85.03 57.25 139.19 57.26 178.49 45.61 230.12 45.61 263.6 35 312.92 35.01 341.41 25.3 388.63 25.31 412.84 16.4 458.12 16.41 497.6 .62 581.46 .63 581.46 2.21 497.92 2.2 458.44 17.99 413.14 17.98 388.92 26.89 341.69 26.89 313.19 36.59 263.85 36.58 230.38 47.19 178.74 47.19 139.44 58.84 85.26 58.83 39.1 71.69"/>
        <polygon class="cls-1" points="1.25 9.58 .92 8.03 37.36 .59 37.7 2.14 1.25 9.58"/>
        <rect class="cls-1" x="1.08" y=".57" width="78.27" height="1.58"/>
        <polygon class="cls-1" points="1951.17 9.94 1871.77 9.94 1837.75 2.32 1838.12 .78 1871.96 8.36 1951.17 8.36 1951.17 9.94"/>
        <polygon class="cls-1" points="1951.17 18.16 1908.49 18.15 1871.77 9.94 1784.63 9.93 1784.53 9.9 1753.92 2.31 1754.32 .78 1784.84 8.35 1871.96 8.36 1908.67 16.57 1951.17 16.58 1951.17 18.16"/>
        <polygon class="cls-1" points="1.39 200.73 .77 199.26 29.49 187.78 29.65 187.78 112.06 187.8 172.43 161.36 249.25 161.38 408 84.52 437.47 70.25 464.21 57.31 518.38 57.31 539.92 45.65 591.56 45.66 608.86 35.04 1399.21 35.14 1440.57 57.44 1820.3 57.49 1820.41 57.52 1951.41 96.29 1950.94 97.8 1820.06 59.07 1440.15 59.02 1398.79 36.72 1349.61 36.72 1250.84 36.71 1201.46 36.7 1152.08 36.69 1102.71 36.68 1003.96 36.68 954.6 36.67 905.23 36.66 855.87 36.65 806.51 36.65 707.8 36.64 658.44 36.63 609.33 36.62 592.03 47.24 540.35 47.23 518.8 58.89 464.59 58.89 438.19 71.66 297.3 139.88 249.63 162.96 172.78 162.94 112.41 189.38 112.24 189.38 29.81 189.36 1.39 200.73"/>
        <polygon class="cls-1" points="1.29 66.65 .87 65.12 30.87 57.24 85.03 57.25 126.87 45.6 178.49 45.61 214.28 34.99 263.6 35 294.2 25.3 341.41 25.3 367.57 16.4 412.84 16.4 435.15 8.2 522.12 8.21 539.28 .69 539.94 2.14 522.47 9.79 435.45 9.78 413.14 17.98 367.85 17.98 341.69 26.89 294.46 26.88 263.85 36.58 214.52 36.58 178.74 47.19 127.09 47.18 85.26 58.83 31.09 58.83 1.29 66.65"/>
        <polygon class="cls-1" points="31.09 58.83 1.08 58.82 1.08 57.24 30.87 57.24 75.24 45.59 126.87 45.6 164.96 34.99 214.28 34.99 247 25.29 294.2 25.3 322.3 16.39 367.57 16.4 413.93 .61 497.76 .62 497.76 2.2 414.2 2.19 367.85 17.98 322.56 17.97 294.46 26.88 247.24 26.87 214.52 36.58 165.19 36.57 127.09 47.18 75.46 47.17 31.09 58.83"/>
        <rect class="cls-1" x="1921.76" y=".77" width="29.41" height="1.58"/>
        <polygon class="cls-1" points="1950.99 27.67 1948.36 27.08 1901.05 27.07 1900.95 27.05 1863.13 18.15 1817.77 18.14 1817.67 18.12 1784.63 9.93 1697.5 9.92 1697.39 9.89 1670.08 2.29 1670.53 .78 1697.73 8.34 1784.84 8.35 1784.94 8.37 1817.97 16.56 1863.32 16.57 1863.42 16.59 1901.24 25.49 1948.54 25.5 1951.36 26.13 1950.99 27.67"/>
        <polygon class="cls-1" points="29.81 189.36 1.08 189.36 1.08 187.78 29.49 187.78 95.61 161.35 172.43 161.36 347.94 84.49 380.67 70.16 1350.4 70.3 1350.61 70.45 1393.27 100.51 1951.17 100.6 1951.17 102.18 1392.74 102.09 1392.53 101.94 1349.87 71.88 1236.05 71.86 1179.01 71.85 1007.91 71.83 950.89 71.82 722.83 71.79 665.82 71.78 494.82 71.76 437.83 71.75 381.02 71.74 348.61 85.94 172.78 162.94 95.93 162.93 29.81 189.36"/>
        <polygon class="cls-1" points="1950.98 38.82 1942.36 36.79 1892.94 36.78 1892.84 36.76 1853.74 27.06 1806.44 27.06 1772.41 18.14 1727.05 18.13 1726.95 18.1 1697.5 9.92 1610.37 9.91 1610.25 9.87 1586.25 2.28 1586.76 .77 1610.63 8.33 1697.73 8.34 1697.84 8.37 1727.28 16.55 1772.63 16.56 1806.66 25.48 1853.95 25.48 1854.05 25.51 1893.15 35.2 1942.56 35.21 1951.36 37.28 1950.98 38.82"/>
        <polygon class="cls-1" points="1.28 52.77 .88 51.24 23.62 45.59 75.24 45.59 115.64 34.98 164.96 34.99 199.79 25.29 247 25.29 277.03 16.39 322.3 16.39 348.18 8.19 435.15 8.2 455.62 .67 456.2 2.14 435.45 9.78 348.44 9.77 322.56 17.97 277.27 17.97 247.24 26.87 200.02 26.87 165.19 36.57 115.86 36.56 75.46 47.17 23.82 47.17 1.28 52.77"/>
        <polygon class="cls-1" points="1950.97 51.17 1935.81 47.42 1884.08 47.41 1843.52 36.78 1794.1 36.77 1793.99 36.74 1759.14 27.05 1711.84 27.05 1711.72 27.01 1681.7 18.13 1636.35 18.12 1636.22 18.08 1610.37 9.91 1566.95 9.9 1523.25 9.9 1502.42 2.26 1503 .78 1523.55 8.32 1566.95 8.32 1610.63 8.33 1610.75 8.36 1636.6 16.54 1681.94 16.55 1682.06 16.58 1712.08 25.47 1759.37 25.47 1759.48 25.5 1794.33 35.19 1843.74 35.2 1884.29 45.83 1936.02 45.84 1951.37 49.64 1950.97 51.17"/>
        <polygon class="cls-1" points="23.82 47.17 1.08 47.16 1.08 45.58 23.62 45.59 66.33 34.98 115.64 34.98 152.58 25.28 199.79 25.29 231.76 16.38 277.03 16.39 330.25 .6 414.06 .61 414.06 2.19 330.5 2.18 277.27 17.97 231.99 17.96 200.02 26.87 152.8 26.86 115.86 36.56 66.53 36.56 23.82 47.17"/>
        <polygon class="cls-1" points="1950.92 117.63 1695.14 36.72 1664.54 27.04 1617.39 27.04 1569.95 27.03 1569.81 26.98 1523.25 9.9 1436.13 9.89 1418.59 2.23 1419.25 .79 1436.48 8.31 1523.55 8.32 1570.25 25.45 1617.39 25.45 1664.8 25.46 1664.92 25.5 1695.65 35.22 1951.42 116.12 1950.92 117.63"/>
        <polygon class="cls-1" points="1.37 169.43 .8 167.95 18.8 161.33 95.61 161.35 288.02 84.41 1951.17 84.67 1951.17 86.25 288.34 86 95.93 162.93 19.09 162.91 1.37 169.43"/>
        <polygon class="cls-1" points="1950.96 64.94 1928.62 59.08 1874.33 59.08 1874.22 59.05 1794.1 36.77 1744.68 36.77 1744.57 36.73 1711.84 27.05 1664.54 27.04 1664.42 27 1636.35 18.12 1500.45 18.11 1455.12 18.1 1409.59 18.1 1409.42 18.01 1376.67 2.21 1377.39 .8 1409.97 16.51 1455.12 16.52 1500.45 16.53 1636.6 16.54 1636.73 16.58 1664.8 25.46 1712.08 25.47 1712.2 25.5 1744.92 35.19 1794.33 35.19 1794.44 35.22 1874.56 57.5 1928.83 57.5 1951.39 63.42 1950.96 64.94"/>
        <polygon class="cls-1" points="1951.17 163.29 1325.5 163.17 1265.41 102.07 185 101.89 19.09 162.91 1.08 162.91 1.08 161.33 18.8 161.33 184.7 100.31 1266.1 100.49 1326.2 161.59 1951.17 161.71 1951.17 163.29"/>
        <polygon class="cls-1" points="1950.95 80.38 1874.33 59.08 1820.06 59.07 1819.94 59.04 1744.68 36.77 1695.4 36.76 1645.99 36.75 1596.59 36.75 1497.79 36.74 1398.79 36.72 1334.74 2.19 1335.53 .81 1399.21 35.14 1596.59 35.17 1645.99 35.17 1695.4 35.18 1744.92 35.19 1745.04 35.22 1820.3 57.49 1874.56 57.5 1874.67 57.53 1951.4 78.86 1950.95 80.38"/>
        <polygon class="cls-1" points="1.27 40.31 .89 38.77 17.02 34.97 66.33 34.98 105.38 25.28 152.58 25.28 186.49 16.38 231.76 16.38 261.21 8.18 348.18 8.19 371.97 .65 372.47 2.15 348.44 9.77 261.44 9.76 231.99 17.96 186.71 17.96 152.8 26.86 105.58 26.86 66.53 36.56 17.21 36.55 1.27 40.31"/>
        <polygon class="cls-1" points="17.21 36.55 1.08 36.55 1.08 34.97 17.02 34.97 58.18 25.27 105.38 25.28 141.23 16.37 186.49 16.38 246.59 .59 330.38 .6 330.38 2.18 288.53 2.18 246.8 2.18 218.04 9.73 186.71 17.96 141.43 17.95 105.58 26.86 58.37 26.85 17.21 36.55"/>
        <polygon class="cls-1" points="1951.17 59.09 1928.62 59.08 1928.51 59.06 1884.08 47.41 1832.45 47.4 1780.72 47.4 1677.28 47.38 1625.56 47.38 1522.13 47.36 1366.77 47.34 1292.82 2.16 1293.69 .82 1367.24 45.76 1418.71 45.77 1625.56 45.8 1677.28 45.8 1780.72 45.82 1832.45 45.82 1884.29 45.83 1884.39 45.86 1928.83 57.5 1951.17 57.51 1951.17 59.09"/>
        <polygon class="cls-1" points="1951.17 71.97 1349.87 71.88 1250.89 2.13 1251.84 .85 1350.4 70.3 1464.24 70.31 1521.3 70.32 1692.49 70.35 1749.56 70.36 1951.17 70.39 1951.17 71.97"/>
        <polygon class="cls-1" points="1950.89 166.78 1569.95 27.03 1475.37 27.02 1436.13 9.89 1218.3 9.86 1208.95 2.09 1210.01 .89 1218.9 8.28 1436.48 8.31 1455.45 16.59 1475.71 25.44 1570.25 25.45 1570.39 25.5 1951.46 165.3 1950.89 166.78"/>
        <polygon class="cls-1" points="1270.66 344.07 1114.2 58.56 1083.13 1.84 1084.56 1.1 1272.1 343.33 1270.66 344.07"/>
        <polygon class="cls-1" points="1.27 29.06 .9 27.52 10.98 25.26 58.18 25.27 95.96 16.37 141.23 16.37 174.24 8.17 261.21 8.18 288.31 .63 288.76 2.15 261.44 9.76 174.45 9.75 141.43 17.95 96.16 17.95 58.37 26.85 11.16 26.84 1.27 29.06"/>
        <polygon class="cls-1" points="1154.2 343.95 1139.4 299.15 1056.07 46.75 1041.19 1.71 1042.74 1.23 1155.75 343.46 1154.2 343.95"/>
        <polygon class="cls-1" points="11.16 26.84 1.08 26.84 1.08 25.26 10.98 25.26 50.7 16.36 95.96 16.37 162.93 .58 246.7 .59 246.7 2.18 163.12 2.16 96.16 17.95 50.88 17.94 11.16 26.84"/>
        <polygon class="cls-1" points="1.35 142.78 .81 141.29 9.5 138.33 1951.17 138.68 1951.17 140.26 9.77 139.91 1.35 142.78"/>
        <polygon class="cls-1" points="9.77 139.91 1.08 139.91 1.08 138.33 9.5 138.33 68.75 118.15 1951.17 118.47 1951.17 120.05 69.02 119.73 9.77 139.91"/>
        <polygon class="cls-1" points="1.26 18.87 .91 17.32 5.44 16.35 50.7 16.36 87.29 8.16 174.24 8.17 204.66 .61 205.06 2.15 174.45 9.75 87.47 9.74 50.88 17.94 5.62 17.93 1.26 18.87"/>
        <polygon class="cls-1" points="5.62 17.93 1.08 17.93 1.08 16.35 5.44 16.35 79.27 .58 163.02 .58 163.02 2.16 121.19 2.16 79.45 2.16 5.62 17.93"/>
        <polygon class="cls-1" points="1.33 119.8 .83 118.3 1.34 118.14 68.75 118.15 121.17 100.3 184.7 100.31 227.95 84.4 288.02 84.41 323.7 70.15 380.67 70.16 410.04 57.3 464.21 57.31 488.29 45.65 539.92 45.65 559.54 35.04 608.86 35.04 624.68 25.34 671.89 25.34 684.47 16.43 729.73 16.44 748.59 .65 832.62 .66 832.62 2.24 790.75 2.23 749.19 2.23 730.33 18.02 685 18.01 672.42 26.92 625.15 26.92 609.33 36.62 559.96 36.62 540.35 47.23 488.67 47.23 464.59 58.89 410.39 58.88 381.02 71.74 324.02 71.73 288.34 86 228.25 85.99 185 101.89 121.45 101.88 69.02 119.73 1.59 119.72 1.33 119.8"/>
        <polygon class="cls-1" points="1.59 119.72 1.08 119.72 1.08 118.14 1.34 118.14 57.64 100.29 121.17 100.3 167.88 84.4 227.95 84.4 266.73 70.14 323.7 70.15 355.87 57.29 410.04 57.3 436.65 45.64 488.29 45.65 510.21 35.03 559.54 35.04 577.47 25.33 624.68 25.34 639.2 16.43 684.47 16.43 696.06 8.23 783 8.24 790.16 .9 791.34 1.98 783.7 9.82 696.59 9.81 685 18.01 639.67 18.01 625.15 26.92 577.9 26.91 559.96 36.62 510.6 36.61 488.67 47.23 437 47.22 410.39 58.88 356.19 58.87 324.02 71.73 267.02 71.72 228.25 85.99 168.15 85.98 121.45 101.88 57.9 101.87 1.59 119.72"/>
      </g>
    </g>
  </g>
</svg>