<?xml version="1.0" encoding="UTF-8"?>
<svg id="Layer_2" xmlns="http://www.w3.org/2000/svg" xmlns:xlink="http://www.w3.org/1999/xlink"
    viewBox="0 0 1377.6 844.95">
    <defs>
        <style>
            .cls-5 {
            clip-path: url(#clippath-6);
            }
            .cls-55 {
            fill: #026374;
            }
        </style>
        <clipPath id="clippath-6">
            <rect class="cls-14" x="1.5" y="197.25" width="1366.54" height="570.68" />
        </clipPath>
    </defs>

    <g id="Curve">
        <g class="cls-5">
            <path class="cls-55"
                d="M26.43,275.55l34.38-7.23c.68-.14,1.38-.26,2.06-.36,38.02-5.38,43.44-9.16,106.98-.16,7.8,1.11,14.98,5.11,20.2,11.3,64.11,76.03,141.82,133.29,204.72,186.1,65.44,55.06,131.19,35.41,196.63,5.16,65.59-30.24,130.73-8.8,196.32-43.44,65.44-34.38,140.77-91.5,206.21-90.98,65.63.26,129.29,29.35,196.32,46.79,65.44,17.32,121.6,51.17,154.48,53.75l2.46.19c17.15,1.35,30.42,16.37,30.42,34.45v339.26c0,19.08-14.72,34.55-32.87,34.55H34.29c-18.12,0-32.82-15.41-32.87-34.45L0,309.53c-.05-16.51,11.02-30.74,26.43-33.98Z" />
        </g>
    </g>
</svg>