<?xml version="1.0" encoding="UTF-8"?>
<svg id="Layer_1" xmlns="http://www.w3.org/2000/svg" viewBox="-30 150 1500  600">
  <defs>
    <style>
      .cls-1 {
        fill: #000;
      }

      .cls-2 {
        fill: #fa0;
        stroke-miterlimit: 10;
        stroke: black;
      }

      .cls-3 {
        fill: none;
        stroke: #000;
        stroke-miterlimit: 10;
        stroke-width: 2px;
      }
    </style>
  </defs>
  <g id="_x31_">
    <path class="cls-1" d="M36.68,502.22c9.98,8.27,21.32,12.41,34.02,12.41,7.2,0,12.62-1.24,16.25-3.72,3.63-2.48,5.44-5.67,5.44-9.57,0-3.36-1.44-6.54-4.32-9.53-2.88-2.99-10.49-7.04-22.81-12.17-19.37-8.22-29.06-20.17-29.06-35.86,0-11.53,4.39-20.48,13.17-26.86,8.78-6.38,20.4-9.57,34.86-9.57,12.11,0,22.28,1.57,30.5,4.72v24.82c-8.33-5.66-18.07-8.49-29.22-8.49-6.51,0-11.72,1.19-15.61,3.56-3.9,2.38-5.84,5.56-5.84,9.57,0,3.2,1.33,6.15,4,8.85,2.67,2.7,9.26,6.34,19.77,10.93,12.33,5.28,20.8,10.86,25.42,16.73,4.62,5.87,6.92,12.86,6.92,20.97,0,11.9-4.22,20.97-12.65,27.22-8.43,6.24-20.41,9.37-35.94,9.37-14.2,0-25.83-2.29-34.9-6.88v-26.5Z"/>
    <path class="cls-3" d="M633.42,600.22l36.04-36.04v-8.46h17.5v21.69l-25.65,25.65c-3.43-2.62-8.56-1.97-11.13,1.97-1.58,2.42-1.62,5.67-.08,8.12,2.74,4.37,8.57,4.84,11.98,1.43,2.75-2.75,2.97-7.07.67-10.07l26.25-26.25v-22.53h16.49v20.8l-28.57,28.57M619.95,595.24l30.6-30.6v-8.93h15.84v7.19l-36.04,36.04M601.47,591.72l30.26-30.26v-5.74h16.78v8.08l-30.6,30.6M584.28,592.19l28.91-28.9v-7.57h15.49v4.47l-30.26,30.26M451.94,548.32h104.4l30.26-30.26h7.04v15.49h-10.14l-28.9,28.91h-37.7c-.58-4.39-4.86-7.6-9.61-6.39-2.67.68-4.8,2.87-5.44,5.54-1.19,5.05,2.6,9.54,7.45,9.54,3.89,0,7.1-2.9,7.6-6.65h38.55l28.9-28.91h9.29v2.63c0,9.67,7.84,17.5,17.5,17.5h0v6.72l-28.91,28.9M552.4,528.82l30.6-30.6h10.65v16.78h-8.31l-30.26,30.26h-104.4M547.85,516.38l36.04-36.04h9.76v15.84h-11.49l-30.6,30.6M543.07,495.5c2.75-2.75,2.97-7.07.67-10.07l25.65-25.65h24.25v17.5h-11.03l-36.04,36.04M541.72,469.81l28.57-28.57h23.36v16.49h-25.1l-26.25,26.25M530.53,452.71l30.02-30.02h33.09v15.49h-24.63l-28.57,28.57M517.75,425.75l21.93-21.93h53.97v16.82h-33.94l-30.02,30.02M537.45,361.66l22.26,22.26h33.94v16.84h-55.24l-21.93,21.93M535.35,337.52l27.55,27.55h30.75v16.81h-33.09l-22.26-22.26M582.24,307.08l28.91,28.9v6.08h0c-9.67,0-17.5,7.84-17.5,17.5v2.44h-29.48l-27.55-27.54M585.13,253.49,598.41,307.97l30.26,30.26v3.83h-15.49v-6.93l-28.91-28.9M617.91,304.03l30.6,30.6v7.44h-16.78v-5.1l-30.26-30.26M630.36,299.47l36.04,36.04v6.55h-15.84v-8.29l-30.6-30.6M676.93,293.34l28.57,28.57v20.15h-16.49v-21.89l-26.25-26.25c2.62-3.43,1.97-8.55-1.96-11.12-2.42-1.58-5.67-1.62-8.12-.09-4.37,2.74-4.85,8.57-1.43,11.99,2.75,2.75,7.07,2.97,10.07.67l25.65,25.65v21.04h-17.5v-7.82l-36.04-36.04M694.03,282.15l30.02,30.02v29.89h-15.49v-21.42l-28.57-28.57M742.91,291.3v50.76h-16.82v-30.73l-30.02-30.02M785.08,289.07l-22.26,22.26v30.73h-16.84v-52.03M809.21,286.98l-27.55,27.54v27.54h-16.81v-29.89l22.26-22.26M919.42,334.46h-60.87l-27.55,27.54h-26.92v-2.44c0-9.67-7.84-17.5-17.5-17.5h-1.86v-26.27l27.55-27.55M916.99,379.93l-20.31-20.31h-39.79l-22.26,22.26h-30.53v-16.81h28.18l27.55-27.55h60.87M878.69,422.69l-21.93-21.93h-52.67v-16.84h31.37l22.26-22.26h38.11l20.31,20.31M882.39,450.67h-16.91l-30.02-30.02h-31.37v-16.82h51.4l21.93,21.93M854.72,466.75l-28.57-28.57h-22.06v-15.49h30.53l30.02,30.02h17.75M852.87,483.99l-26.25-26.25h-22.53v-16.49h20.8l28.57,28.57M881.76,513.32h-33.17l-36.04-36.04h-8.46v-17.5h21.69l25.65,25.65M843.62,526.78l-30.6-30.6h-8.93v-15.84h7.19l36.04,36.04h35.7M840.09,545.26l-30.26-30.26h-5.74v-16.78h8.08l30.6,30.6M840.56,562.45l-28.9-28.91h-7.57v-15.49h4.47l30.26,30.26M885.86,555.8,812.28,610.18l-27.55-27.55v-26.92h1.86c9.67,0,17.5-7.84,17.5-17.5v-2.63h6.72l28.9,28.91M787.12,608.51l-22.26-22.26v-30.53h16.81v28.18l27.55,27.55M724.04,630.31l21.93-21.93v-52.67h16.84v31.37l22.26,22.26M696.07,617.11l30.02-30.02v-31.37h16.82v51.4l-21.93,21.93M679.99,606.35l28.57-28.57v-22.06h15.49v30.53l-30.02,30.02"/>
    <path class="cls-1" d="M136.1,416.32c0-3.95,1.4-7.16,4.2-9.65,2.8-2.48,6.39-3.72,10.77-3.72s8.11,1.27,10.89,3.8c2.77,2.54,4.16,5.72,4.16,9.57s-1.42,7.14-4.24,9.73c-2.83,2.59-6.43,3.88-10.81,3.88s-7.9-1.31-10.73-3.92c-2.83-2.61-4.24-5.84-4.24-9.69ZM138.02,533.44v-88.54h25.78v88.54h-25.78Z"/>
    <path class="cls-1" d="M186.53,533.44v-131.04h25.78v131.04h-25.78Z"/>
    <path class="cls-1" d="M233.12,416.32c0-3.95,1.4-7.16,4.2-9.65,2.8-2.48,6.39-3.72,10.77-3.72s8.11,1.27,10.89,3.8c2.77,2.54,4.16,5.72,4.16,9.57s-1.42,7.14-4.24,9.73c-2.83,2.59-6.43,3.88-10.81,3.88s-7.9-1.31-10.73-3.92c-2.83-2.61-4.24-5.84-4.24-9.69ZM235.04,533.44v-88.54h25.78v88.54h-25.78Z"/>
    <path class="cls-1" d="M350.32,530.16c-6.19,3.63-15,5.44-26.42,5.44-13.5,0-24.42-4.11-32.74-12.33-8.33-8.22-12.49-18.86-12.49-31.94,0-15.05,4.48-26.91,13.45-35.58,8.97-8.67,20.92-13.01,35.86-13.01,10.09,0,17.56,1.39,22.41,4.16v22.17c-5.92-4.32-12.38-6.48-19.37-6.48-7.9,0-14.24,2.4-19.01,7.2-4.78,4.8-7.16,11.4-7.16,19.77s2.27,14.5,6.8,19.17c4.54,4.67,10.7,7,18.49,7,6.88,0,13.61-2.19,20.17-6.56v20.97Z"/>
    <path class="cls-1" d="M363.37,489.57c0-14.57,4.36-26.02,13.09-34.34,8.73-8.33,20.45-12.49,35.18-12.49s25.56,4.1,33.94,12.29c8.38,8.19,12.57,19.2,12.57,33.02,0,14.52-4.3,26.07-12.89,34.66-8.59,8.59-20.23,12.89-34.9,12.89s-25.84-4.12-34.3-12.37c-8.46-8.25-12.69-19.47-12.69-33.66ZM389.54,489.25c0,17.67,7.2,26.5,21.61,26.5s20.73-9.07,20.73-27.22-6.96-25.94-20.89-25.94c-6.78,0-12.05,2.32-15.81,6.96-3.76,4.64-5.64,11.21-5.64,19.69Z"/>
    <path class="cls-1" d="M560.53,533.44h-25.7v-49.39c0-14.3-5.15-21.45-15.45-21.45-4.91,0-8.99,1.91-12.25,5.72-3.26,3.82-4.88,8.69-4.88,14.61v50.51h-25.86v-88.54h25.86v14.09h.32c6.46-10.83,15.96-16.25,28.5-16.25,19.64,0,29.46,12.17,29.46,36.5v54.2Z"/>
    <path class="cls-2" d="M774.41,533.31h-42.57l-30.19-55.81c-1.09-2.03-2.21-5.68-3.37-10.97h-.43c-.58,2.61-1.88,6.37-3.91,11.29l-30.3,55.49h-42.89l53.97-84.16-49.3-84.05h43.65l25.08,51.47c2.03,4.2,3.76,8.83,5.21,13.9h.43c1.52-4.56,3.37-9.37,5.54-14.44l27.69-50.93h40.07l-50.82,83.4,52.12,84.81Z"/>
    <path class="cls-1" d="M961.65,533.44h-26.42v-51.15h-52.83v51.15h-26.42v-124h26.42v50.03h52.83v-50.03h26.42v124Z"/>
    <path class="cls-1" d="M990.23,450.27c4-2.24,9.35-4.05,16.05-5.44,6.7-1.39,12.42-2.08,17.17-2.08,24.76,0,37.15,12.41,37.15,37.22v53.47h-24.58v-12.89h-.32c-6.03,10.03-14.86,15.05-26.5,15.05-8.38,0-15.09-2.39-20.13-7.16-5.04-4.78-7.56-11.27-7.56-19.49,0-16.97,10.11-26.84,30.34-29.62l24.34-3.28c0-10.3-5.36-15.45-16.09-15.45s-20.52,3.2-29.86,9.61v-19.93ZM1019.44,493.33c-9.34,1.23-14.01,5.44-14.01,12.65,0,3.31,1.13,5.98,3.4,8,2.27,2.03,5.32,3.04,9.17,3.04,5.28,0,9.63-1.87,13.05-5.6,3.41-3.73,5.12-8.38,5.12-13.93v-6.32l-16.73,2.16Z"/>
    <path class="cls-1" d="M1149.13,530.16c-6.19,3.63-15,5.44-26.42,5.44-13.5,0-24.42-4.11-32.74-12.33-8.33-8.22-12.49-18.86-12.49-31.94,0-15.05,4.48-26.91,13.45-35.58,8.97-8.67,20.92-13.01,35.86-13.01,10.09,0,17.56,1.39,22.41,4.16v22.17c-5.92-4.32-12.38-6.48-19.37-6.48-7.9,0-14.24,2.4-19.01,7.2-4.78,4.8-7.16,11.4-7.16,19.77s2.27,14.5,6.8,19.17c4.54,4.67,10.7,7,18.49,7,6.88,0,13.61-2.19,20.17-6.56v20.97Z"/>
    <path class="cls-1" d="M1254.48,533.44h-31.38l-29.46-43.79h-.32v43.79h-25.86v-131.04h25.86v83.41h.32l27.62-40.91h30.82l-32.82,41.79,35.22,46.75Z"/>
    <path class="cls-1" d="M1262.88,509.67c8.86,5.39,17.53,8.09,26.02,8.09,10.67,0,16.01-2.85,16.01-8.57,0-4.05-4.4-7.44-13.21-10.17-10.99-3.42-18.55-7.22-22.65-11.41-4.11-4.19-6.16-9.86-6.16-17.01,0-8.7,3.52-15.52,10.57-20.45,7.04-4.94,16.28-7.41,27.7-7.41,8.11,0,15.93,1.2,23.46,3.6v20.33c-6.88-4.05-14.46-6.08-22.74-6.08-4.11,0-7.42.73-9.93,2.2-2.51,1.47-3.76,3.4-3.76,5.8,0,4.06,3.73,7.34,11.21,9.85,8,2.67,14.02,5.1,18.05,7.29,4.03,2.19,7.1,5.07,9.21,8.65,2.11,3.58,3.16,7.71,3.16,12.41,0,9.13-3.65,16.21-10.97,21.25-7.31,5.04-17.08,7.56-29.3,7.56-9.61,0-18.49-1.52-26.66-4.56v-21.37Z"/>
  </g>
</svg>