<?xml version="1.0" encoding="UTF-8"?>
<svg id="Layer_1" xmlns="http://www.w3.org/2000/svg" viewBox="0 0 1500 843.75">
  <defs>
    <style>
      .cls-1 {
        <!-- fill: #fff; -->
      }

      .cls-2 {
        fill: none;
        stroke-width: 2px;
      }

      .cls-2, .cls-3 {
        <!-- stroke: #fdb71a; -->
        stroke-miterlimit: 10;
        stroke: black;
      }

      .cls-3 {
        fill: #fdb71a;
        stroke: black;
        stroke-width : 3px;
      }
    </style>
  </defs>
  <g id="_x31_">
    <path class="cls-1" d="M75.36,423.6c10.42,8.64,22.25,12.95,35.51,12.95,7.52,0,13.17-1.3,16.96-3.89,3.79-2.59,5.68-5.92,5.68-9.98,0-3.51-1.5-6.82-4.51-9.94-3.01-3.12-10.95-7.35-23.81-12.7-20.22-8.58-30.33-21.06-30.33-37.43,0-12.03,4.58-21.38,13.75-28.03,9.16-6.66,21.29-9.99,36.39-9.99,12.65,0,23.26,1.64,31.84,4.93v25.9c-8.69-5.9-18.86-8.86-30.5-8.86-6.8,0-12.23,1.24-16.29,3.72-4.07,2.48-6.1,5.81-6.1,9.99,0,3.34,1.39,6.42,4.18,9.23,2.78,2.81,9.66,6.62,20.64,11.41,12.87,5.51,21.71,11.34,26.53,17.46,4.82,6.13,7.23,13.43,7.23,21.89,0,12.42-4.4,21.89-13.2,28.41-8.8,6.52-21.31,9.78-37.52,9.78-14.82,0-26.96-2.39-36.43-7.19v-27.66Z"/>
    <path class="cls-2" d="M698.24,525.89l37.62-37.62v-8.83h18.27v22.64l-26.78,26.78c-3.58-2.74-8.93-2.06-11.61,2.06-1.65,2.53-1.69,5.92-.09,8.47,2.86,4.56,8.95,5.06,12.51,1.49,2.87-2.87,3.1-7.38.7-10.52l27.4-27.4v-23.52h17.22v21.71l-29.82,29.82M684.19,520.69l31.94-31.94v-9.32h16.54v7.51l-37.62,37.62M664.9,517.02l31.59-31.59v-5.99h17.51v8.44l-31.94,31.94M646.96,517.51l30.17-30.17v-7.9h16.17v4.67l-31.59,31.59M508.82,471.72h108.98l31.59-31.59h7.35v16.17h-10.58l-30.17,30.17h-39.35c-.61-4.58-5.08-7.94-10.03-6.67-2.78.71-5.01,2.99-5.67,5.79-1.25,5.27,2.72,9.96,7.78,9.96,4.06,0,7.41-3.02,7.93-6.94h40.24l30.17-30.17h9.7v2.74c0,10.09,8.18,18.27,18.27,18.27h0v7.02l-30.17,30.17M527.73,416.72l21.66,21.66h59.54l37.62-37.62h10.19v16.54h-12l-31.94,31.94h-76.51l-6.89-6.89c2.74-3.58,2.06-8.93-2.06-11.62-2.53-1.65-5.92-1.69-8.47-.08-4.56,2.86-5.06,8.95-1.49,12.51,2.87,2.87,7.38,3.1,10.52.7l7.52,7.52h78.27l31.94-31.94h11.12v17.51h-8.67l-31.59,31.59h-108.98M602.53,389.76l29.82-29.82h24.39v17.22h-26.2l-27.4,27.4c-3.58-2.74-8.93-2.06-11.62,2.06-1.65,2.53-1.69,5.92-.08,8.47,2.86,4.56,8.95,5.05,12.51,1.49,2.87-2.87,3.1-7.38.7-10.52l26.78-26.78h25.32v18.27h-11.51l-37.62,37.62h-56.9l-21.66-21.66M577.51,343.78l22.89-22.89h56.33v17.56h-35.43l-31.34,31.34h-43.16c-.61-4.58-5.08-7.94-10.03-6.67-2.78.71-5.01,2.99-5.67,5.79-1.25,5.27,2.72,9.96,7.78,9.96,4.06,0,7.41-3.02,7.93-6.94h44.04l31.34-31.34h34.54v16.17h-25.71l-29.82,29.82M598.07,276.87l23.24,23.24h35.43v17.58h-57.66l-22.89,22.89M595.88,251.68l28.75,28.75h32.1v17.55h-34.54l-23.24-23.24M644.83,219.9l30.17,30.17v6.35h0c-10.09,0-18.27,8.18-18.27,18.27v2.55h-30.77l-28.75-28.75M647.84,163.96,661.71,220.84l31.59,31.59v4h-16.17v-7.23l-30.17-30.17M682.06,216.72l31.94,31.94v7.77h-17.51v-5.32l-31.59-31.59M695.05,211.96l37.62,37.62v6.84h-16.54v-8.65l-31.94-31.94M743.66,205.57l29.82,29.82v21.04h-17.22v-22.85l-27.4-27.4c2.74-3.58,2.06-8.93-2.05-11.61-2.53-1.65-5.92-1.69-8.47-.09-4.56,2.86-5.06,8.95-1.5,12.51,2.87,2.87,7.38,3.1,10.52.7l26.78,26.78v21.97h-18.27v-8.16l-37.62-37.62M761.51,193.89l31.34,31.34v31.19h-16.17v-22.36l-29.82-29.82M812.54,203.44v52.98h-17.56v-32.08l-31.34-31.34M856.55,201.11l-23.24,23.24v32.08h-17.58v-54.31M881.74,198.92l-28.75,28.75v28.75h-17.55v-31.19l23.24-23.24M996.78,248.48h-63.54l-28.75,28.75h-28.1v-2.55c0-10.09-8.18-18.27-18.27-18.27h-1.94v-27.43l28.75-28.75M994.24,295.95l-21.2-21.2h-41.54l-23.24,23.24h-31.86v-17.55h29.42l28.75-28.75h63.54M954.26,340.58l-22.89-22.89h-54.98v-17.58h32.75l23.24-23.24h39.77l21.2,21.2M983.64,369.79h-43.16l-31.34-31.34h-32.75v-17.56h53.65l22.89,22.89M929.24,386.57l-29.82-29.82h-23.03v-16.17h31.86l31.34,31.34h44.04M979.74,435.18h-56.9l-37.62-37.62h-8.83v-18.27h22.64l26.78,26.78c-2.74,3.58-2.06,8.93,2.06,11.62,2.53,1.65,5.92,1.69,8.47.09,4.56-2.86,5.06-8.95,1.49-12.51-2.87-2.87-7.38-3.1-10.52-.7l-27.4-27.4h-23.52v-17.22h21.71l29.82,29.82M917.65,449.23l-31.94-31.94h-9.32v-16.54h7.51l37.62,37.62h59.54M913.98,468.52l-31.59-31.59h-5.99v-17.51h8.44l31.94,31.94M914.47,486.47l-30.17-30.17h-7.9v-16.17h4.67l31.59,31.59M961.75,479.52,884.94,536.28l-28.75-28.75v-28.1h1.94c10.09,0,18.27-8.18,18.27-18.27v-2.74h7.02l30.17,30.17M858.68,534.54l-23.24-23.24v-31.86h17.55v29.42l28.75,28.75M792.84,557.3l22.89-22.89v-54.98h17.58v32.75l23.24,23.24M763.64,543.52l31.34-31.34v-32.75h17.56v53.65l-22.89,22.89M746.86,532.28l29.82-29.82v-23.03h16.17v31.86l-31.34,31.34"/>
    <path class="cls-1" d="M179.14,333.94c0-4.12,1.46-7.48,4.39-10.07s6.67-3.89,11.24-3.89,8.47,1.32,11.36,3.97c2.9,2.65,4.34,5.97,4.34,9.99s-1.48,7.45-4.43,10.15c-2.95,2.7-6.71,4.05-11.28,4.05s-8.25-1.36-11.2-4.09c-2.95-2.73-4.43-6.1-4.43-10.11ZM181.14,456.18v-92.42h26.91v92.42h-26.91Z"/>
    <path class="cls-1" d="M231.78,456.18v-136.79h26.91v136.79h-26.91Z"/>
    <path class="cls-1" d="M280.41,333.94c0-4.12,1.46-7.48,4.39-10.07,2.92-2.59,6.67-3.89,11.24-3.89s8.47,1.32,11.36,3.97c2.9,2.65,4.34,5.97,4.34,9.99s-1.48,7.45-4.43,10.15c-2.95,2.7-6.71,4.05-11.28,4.05s-8.25-1.36-11.2-4.09c-2.95-2.73-4.43-6.1-4.43-10.11ZM282.42,456.18v-92.42h26.91v92.42h-26.91Z"/>
    <path class="cls-1" d="M402.74,452.76c-6.46,3.79-15.65,5.68-27.57,5.68-14.09,0-25.49-4.29-34.18-12.87-8.69-8.58-13.03-19.69-13.03-33.34,0-15.71,4.68-28.09,14.04-37.14,9.36-9.05,21.84-13.58,37.43-13.58,10.53,0,18.33,1.45,23.4,4.35v23.15c-6.18-4.51-12.92-6.77-20.22-6.77-8.24,0-14.86,2.51-19.85,7.52-4.99,5.01-7.48,11.89-7.48,20.64s2.37,15.14,7.1,20.01c4.73,4.88,11.17,7.31,19.3,7.31,7.19,0,14.21-2.28,21.06-6.85v21.89Z"/>
    <path class="cls-1" d="M416.36,410.39c0-15.21,4.55-27.16,13.66-35.85,9.11-8.69,21.35-13.04,36.72-13.04s26.68,4.28,35.43,12.83c8.74,8.55,13.12,20.04,13.12,34.47,0,15.15-4.49,27.21-13.45,36.18-8.97,8.97-21.11,13.45-36.43,13.45s-26.98-4.3-35.8-12.91c-8.83-8.61-13.24-20.32-13.24-35.14ZM443.69,410.06c0,18.44,7.52,27.66,22.56,27.66s21.64-9.47,21.64-28.41-7.27-27.07-21.81-27.07c-7.08,0-12.58,2.42-16.5,7.27-3.93,4.85-5.89,11.7-5.89,20.56Z"/>
    <path class="cls-1" d="M622.17,456.18h-26.82v-51.56c0-14.93-5.38-22.39-16.13-22.39-5.13,0-9.39,1.99-12.78,5.98-3.4,3.98-5.1,9.07-5.1,15.25v52.73h-26.99v-92.42h26.99v14.7h.33c6.74-11.31,16.66-16.96,29.75-16.96,20.5,0,30.75,12.7,30.75,38.1v56.57Z"/>
    <path class="cls-3" d="M845.42,456.05h-44.43l-31.51-58.26c-1.13-2.12-2.31-5.93-3.51-11.45h-.45c-.61,2.72-1.97,6.65-4.08,11.79l-31.62,57.92h-44.77l56.33-87.84-51.46-87.73h45.57l26.18,53.73c2.12,4.38,3.93,9.22,5.44,14.51h.45c1.59-4.76,3.51-9.78,5.78-15.07l28.9-53.16h41.83l-53.05,87.05,54.41,88.52Z"/>
    <path class="cls-1" d="M1040.85,456.18h-27.57v-53.39h-55.15v53.39h-27.57v-129.43h27.57v52.22h55.15v-52.22h27.57v129.43Z"/>
    <path class="cls-1" d="M1070.69,369.37c4.18-2.34,9.76-4.23,16.75-5.68,6.99-1.45,12.97-2.17,17.92-2.17,25.85,0,38.77,12.95,38.77,38.86v55.82h-25.65v-13.45h-.33c-6.3,10.47-15.51,15.71-27.66,15.71-8.75,0-15.75-2.49-21.01-7.48-5.26-4.99-7.9-11.77-7.9-20.35,0-17.71,10.56-28.02,31.67-30.92l25.4-3.43c0-10.75-5.6-16.13-16.79-16.13s-21.42,3.34-31.17,10.03v-20.81ZM1101.18,414.32c-9.75,1.28-14.62,5.68-14.62,13.2,0,3.45,1.18,6.24,3.55,8.36,2.37,2.12,5.56,3.18,9.57,3.18,5.51,0,10.05-1.95,13.62-5.85,3.56-3.9,5.35-8.75,5.35-14.54v-6.6l-17.46,2.26Z"/>
    <path class="cls-1" d="M1236.55,452.76c-6.46,3.79-15.66,5.68-27.57,5.68-14.09,0-25.49-4.29-34.18-12.87-8.69-8.58-13.03-19.69-13.03-33.34,0-15.71,4.68-28.09,14.04-37.14,9.36-9.05,21.84-13.58,37.43-13.58,10.53,0,18.33,1.45,23.4,4.35v23.15c-6.18-4.51-12.92-6.77-20.22-6.77-8.25,0-14.86,2.51-19.85,7.52-4.99,5.01-7.48,11.89-7.48,20.64s2.37,15.14,7.1,20.01c4.73,4.88,11.17,7.31,19.3,7.31,7.19,0,14.21-2.28,21.06-6.85v21.89Z"/>
    <path class="cls-1" d="M1346.52,456.18h-32.76l-30.75-45.71h-.33v45.71h-26.99v-136.79h26.99v87.07h.33l28.83-42.7h32.17l-34.26,43.62,36.77,48.8Z"/>
    <path class="cls-1" d="M1355.29,431.37c9.25,5.63,18.3,8.44,27.16,8.44,11.14,0,16.71-2.98,16.71-8.94,0-4.23-4.6-7.77-13.79-10.61-11.48-3.56-19.36-7.53-23.65-11.91-4.29-4.37-6.43-10.29-6.43-17.76,0-9.08,3.68-16.2,11.03-21.35,7.35-5.15,16.99-7.73,28.91-7.73,8.47,0,16.63,1.25,24.48,3.76v21.22c-7.19-4.23-15.1-6.35-23.73-6.35-4.29,0-7.74.77-10.36,2.3-2.62,1.53-3.93,3.55-3.93,6.06,0,4.23,3.9,7.66,11.7,10.28,8.36,2.79,14.64,5.32,18.84,7.6,4.21,2.28,7.41,5.29,9.61,9.02,2.2,3.73,3.3,8.05,3.3,12.95,0,9.53-3.81,16.92-11.45,22.18-7.63,5.26-17.83,7.9-30.58,7.9-10.03,0-19.3-1.59-27.83-4.76v-22.31Z"/>
  </g>
</svg>