<?xml version="1.0" encoding="UTF-8"?>
<svg id="Layer_2" xmlns="http://www.w3.org/2000/svg" xmlns:xlink="http://www.w3.org/1999/xlink"
    viewBox="0 0 1377.6 844.95">
    <defs>
        <style>
            .cls-4 {
            fill: #31f5ff;
            }
            .cls-12 {
            stroke: #05b4c6;
            }
            .cls-12, .cls-13, .cls-14, .cls-15, .cls-16, .cls-17, .cls-18, .cls-19, .cls-20 {
            fill: none;
            }

            .cls-12, .cls-13, .cls-15, .cls-16, .cls-17, .cls-21, .cls-19, .cls-20, .cls-22 {
            stroke-miterlimit: 10;
            }

            .cls-12, .cls-20 {
            stroke-width: 2px;
            }
            .cls-37 {
            fill: #05b4c6;
            }
        </style>
    </defs>

    <g id="Statue">
        <g>
            <path class="cls-4"
                d="M1247.62,686.86c4.9.16,2.22,11.55,2.22,11.55l-2.45,13.73-1.81,8.3h0s-1.71,8.46-2.34,10.79c-.69,2.57.16-1.53-.13,1.11-.72,6.6-9.13-2.98-9.13-2.98l44.7-1.02s-21.44,8.39-14.35,7.36c.74-.11-7.03-.9-6.5-1.88-4.08-.52,9.61.48,5.55.3,6.97.33.59,11.96.59,11.96-3.25-.85-.73-15.63-.79-18.24-.07-3.13,1.98-4.51,4.27-5.47,2.56-1.08,4.84-2.42,6.89-4.27,4.86-4.39,7.59-13.88,3.87-19.12-5.8-8.15-4.6-17.63-6.84-26.41-2.07-8.16-3.56-16.44-6.8-24.3-2.33-5.66-3.28-11.82-3.23-17.9.05-5.58-1.87-10.66-2.73-15.98-.67-4.13-1.61-8.17-1.18-12.4.3-2.96-.44-5.9-1.17-8.71-1.78-6.88-2.06-13.83-1.5-20.83.53-6.57-1.82-12.72-2.47-19.11-1.51-14.81-1.81-29.41,4.59-43.44,3.45-7.55.62-13.73-4.88-19.46-.82-.85-1.59-1.75-2.3-2.69-2.24-2.97-3.92-6.38-4.67-10.2-.52-2.64-.16-4.89,2-6.76,1.54-1.33,2.68-3.26,4.4-4.22,3.38-1.89,2.62-4.13,1.28-6.74-3.26-6.34-6.3-12.83-11.72-17.73-2.59-2.34-5.79-3.98-8.07-6.67-2.53-2.98-5.68-5.91-4.44-10.36.91-3.3,4.06-4.75,6.9-5.87,2.63-1.04,4.59,1.01,6.91,2.33,5.73,3.25,7.28,9.42,8.72,14.02,1.76,5.63,9.32,12.86,10.08,15.02,1.07,3.08,8.09,10.96,10.4,13.35,1.45,1.49-6.14-3.36-4.07-2.71,1.4.44,4.07,2.71,4.07,2.71h0l1.44.76,2.13,1.27.79.82.97.89.66.52,1.07.53h0c4.54,3.83,9.91,6.43,13.94,10.67,2.44,2.57,2.95,5.97,4.42,8.89,2.71,5.37,4.54,11.11,4.86,17.46.4,8.01-.57,15.69-1.96,23.48-.71,3.97-.92,8.07-1.69,12.06-.93,4.78,1.94,8.59,3.11,12.81.63,2.28,1.67,4.55,1.52,6.87-.26,4.09,1.1,7.8,2.15,11.57.57,2.04.47,3.85-.7,5.49-1.46,2.04-2.02,4.33-2.01,6.72,0,2.99-.35,5.89-1.55,8.61-2.14,4.84-1.63,9.79-1.41,14.92.48,11.18.26,22.39-.52,33.58-.27,3.84.25,7.67,1.26,11.41,2.49,9.31,1.6,18.73.83,28.15-.07.89.02,1.8.01,2.69-.02,4.16.59,8.43-2.17,12.12-.32.43-.5,1.06-.51,1.59-.05,4.97-.43,9.96.18,14.92.13,1.06-.02,14.4.62,15.56.17.3.27.64.2.97-.78,3.7-3.26-4.46-1.29-2.98,3.99,2.99-8.57,1.17-3.21,1.28-2.12,1.06,68.63-1.23,66.95,0-.68.49.71,6.67,1.06,7.64.32.89-4.99,5.28-4.99,5.28-.08-.04,2.37-12.21,2.37-12.21l-3.37,1.7c8.83.76-2.64,1.83-2.64,1.83l4.87-4.55c8.31-.51,9.18,5.37,7.24,13.07-.41,11.92.45,18.63-1.2,27.74l2.13.72h-9.59l-101.48.49-63.54-1.41-23.84.05-17.47.02-26.34-.02-28.63-.05-72.4.07s-58.87.52-68.27.41l5.34-.07-5.34.07s.45-13.36.45-24.93c-.3-1.19-.29-6.62-.34-7.86-.03-.83,2.52-3.27,3.28-3.3.55-.03,3.28.07,3.6.74,1.11,2.35-5.14,2.69-3.23.98,1.21-1.09,4.87,4.4,6.41,4.4,14.54,0,8.31-1.35,22.83-1.29,15.88.06,67.78-12.3,68.52,3.52.17,3.63-1.24,3.02-.92,2.83-22.25-.52-42.79-6.83-66-6.55,1.85-1.55,3.11-1.21,4.23-1.21,7.73-.04-20.01,12.37-12.28,12.34,1.01,0-4.38,1.72-3.38,1.55.61-.1,5.69-12.47,5.53-13.09-.1-.36,2.4,2.94,2.07,2.68-.16-.13-16.05.54-16.27.54-10.08-.11.79-.43-9.28-.31-1.5.02,2.1-6.98.62-6.93-8.51.29,15.58-1.47,7.08-.56-.31.03-9.14.8-9.54.36,2.1-1.07,4.39-1.32,6.75-1.32,16.48,0,32.96.3,49.43-.08,18.06-.42,36.11-.69,54.17-.86,9.2-.09,9.4-.65,7.45-9.71-2-9.28-3.73-18.61-4.25-28.13-.13-2.43.83-3.76,3.16-3.88,6.92-.36,13.85-.69,20.76.04,1.94.21,3.54.28,4.93-1.33,1.58-1.83,3.9-2.32,6.12-2.72,5.22-.95,9.91-3.3,14.62-5.49,3.23-1.5,3.27-5.08,3.33-8,.07-4.04-.64-8.09-.98-12.15-.23-2.74-1.06-5.07-2.68-7.48-1.8-2.68-1.52-6.32-1.57-9.56-.15-9.77-1.09-19.41-3.92-28.8-1.65-5.47-2-11.12-2.57-16.74-.9-8.81-4.05-17.14-5.68-25.81-.26-1.4-.5-2.81-.72-4.21-1.04-6.73-1.61-13.5-2.12-20.29-.51-6.77-.11-13.54-.21-20.3-.08-5.79-1.42-11.59-1.48-17.48-.05-5.07.15-10.27-.85-15.19-1.9-9.32,1.51-17.85,2.91-26.7.61-3.89.65-7.83,1.32-11.75.61-3.58-2.4-6.39-4.33-9.26-2.32-3.44-5.73-6.29-6.22-10.71-.27-2.43-.58-4.88-2.21-6.64-2.63-2.84-3.44-6.74-6.18-9.53-3.42-3.5-4.95-8-5.95-12.75-1.59-7.54-3.34-15.18-8.17-21.36-2.62-3.36-5.16-6.71-7.46-10.29-3.16-4.91-2.73-7.93,1.85-10.37,3.92-2.09,10.83,1.24,10.94,5.6.2,7.58,3.85,13.32,8.21,19.2,6.06,8.16,12.57,16.08,16.85,25.46,2.12,4.65,3.24,5.14,8.38,4.75,7.19-.55,14.57,5.42,15.49,12.53.1.79.21,1.57.24,2.36.14,4.03-.08,8.3,5.79,8.42,7.6,5.77,15.15,11.25,16.3,22.11,1.1,10.31,1.58,20.49-.79,30.59-2.35,10.02-2.76,20.27-4.2,30.4-.46,3.23.82,6.26,1.55,9.33.48,2.02,2.44,1.76,3.99,1.71,7.06-.24,6.61.2,6.7,6.77.05,4.16.03,8.33.27,12.48.09,1.63-.68,1.73-1.87,2.14-3.71,1.29-7.44.22-11.16.39-1.96.09-3,.58-2.68,2.8.78,5.4.18,10.86.57,16.28.79,10.85-.26,21.69-.09,32.54.1,6.26,1.67,12.32,2.3,18.52.7,6.82.08,13.55-.45,20.32-.17,2.21-2.52,3.14-2.8,5.31-.76,5.95-1.67,11.89-1.01,17.9.51,4.72,1.32,9.41,1.89,14.12.18,1.52.67,2.15,2.34,2.08,12.83-.5,25.67.26,38.5-.49,2.14-.12,4.31.16,6.45.34,2.95.24,4.31-.8,3.57-3.93-1.09-4.6.87-7.77,4.81-10.06,2.99-1.73,5.4-.73,7.4,2.03,2.48,3.42,4.18,6.89,4.05,11.14-.04,1.4,1.01.95,1.7.92,6.35-.31,12.72.23,19.07-.54,2.54-.31,12.57-.66,14.97-.16" />
            <path class="cls-37"
                d="M1122.59,479.13s12.38,2.75,13.76,8.25,0,37.83,0,37.83c0,0-.48-41.03-13.76-46.09Z" />
            <path class="cls-37"
                d="M1127.75,660.91v7.17l-.49,5.99c-.05.66-.21,1.32-.47,1.93l-2.79,6.75-7.03,2.07-17.79,3.91,3.94-3.24,17.33-6.87,2.83-24.99-2.52-4.82-.78-2.98-.08-4.18-.97-12.9-2.31-10.39-2.05-9.73-1-8.98-1.52-9.14-3.53-13.65-1.28-6.62-1.1-8.09-1.27-14.6-.16-8.57v-9.63l-.84-10.17-.56-6.68-.31-12.5-.82-5.45-.31-4.56.41-7.47,2.35-12.14.39-2.52,14.13,141.98,8.15,45.96c.3,1.69.45,3.4.45,5.11Z" />
            <path class="cls-37"
                d="M960.81,768.25h-5.34v-33.13l1.65-1.72c1.16-.88,2.78-2.48,2.81-1.03l.88,35.89Z" />
            <path class="cls-37" d="M1077.66,726.21s-7.48-34.42-4.16-38.09h4.6l-.44,38.09Z" />
            <path class="cls-37"
                d="M1078.71,390.11l7.31,22.5,12.17,18.56,10.35,18.47c.21.37.28.8.22,1.22l-1.94,35.04-1.8-18.06,1.5-11.83.33-2.38-.16-1.99-.9-1.87-7.18-9.8-2-2.83-1.43-8.03-2.98-3.61-2.81-5.45-3.84-4.36-1.98-4.13-1.18-4.08-1.61-7.16-1.16-4.3-1.27-3.74-.95-2.15-1.2-2.61-6.65-8.99-3.29-4.79-.88-1.5-.88-2.11-.27-1.72.11-.99,14.38,22.69Z" />
            <polygon class="cls-37"
                points="1157.85 556.18 1157.14 556.79 1156.08 557.2 1153.77 557.76 1151.44 557.99 1143.55 557.76 1143.49 554.37 1157.74 553.3 1157.85 556.18" />
            <path class="cls-37"
                d="M1276.74,728.38l-10.16.23c-1.7.04-2.95-1.58-2.48-3.22h0c.2-.68.67-1.25,1.3-1.56l3.95-1.96c.18-.09.35-.2.5-.33l5.15-4.32c.18-.15.34-.33.47-.53l2.53-3.77c.13-.19.22-.39.3-.6l1.07-3.2c.07-.2.11-.41.13-.63l.22-3.12c.02-.22,0-.43-.04-.64l-.79-4.19c-.06-.34-.2-.67-.4-.96l-2.45-3.58c-.16-.23-.27-.48-.35-.74l-.96-3.42-1.04-4.42c-.02-.07-.03-.14-.04-.21l-1.86-12.72c-.01-.08-.03-.16-.05-.24l-4.35-17.68c-.02-.09-.05-.18-.08-.26l-4.06-11.15c-.04-.11-.07-.23-.1-.34l-.92-4.36s-.02-.09-.02-.14l-.68-4.46c-.01-.08-.02-.16-.02-.24l-.59-10.14c0-.13-.02-.25-.05-.37l-2.25-10.66s-.02-.09-.03-.14l-1.13-7.33c-.02-.1-.03-.21-.03-.31l-.12-4.33-.12-4.24c0-.13-.02-.25-.04-.38l-1.54-7.19-.87-6.16c-.03-.14-.04-.28-.04-.42l-.38-3.39.22-13.29c0-.16-.02-.31-.05-.47l-1.71-8.62c-.02-.09-.03-.18-.04-.27l-1.25-14.46c0-.08,0-.15,0-.23l.06-11.08c0-.07,0-.14.01-.22l.63-6.88c.01-.12.03-.24.06-.35l1.4-5.86c.02-.07.03-.13.06-.2l1.76-5.39c.02-.06.04-.11.06-.17l2.05-5.04c.05-.12.09-.24.12-.37l.5-2.11c.04-.15.06-.3.07-.45l.09-1.61c0-.09,0-.19,0-.28l-.09-1.46c0-.14-.03-.27-.06-.41l-.32-1.41c-.03-.11-.06-.22-.1-.33l-.8-2.12c-.04-.1-.08-.2-.13-.3l-.85-1.6c-.05-.1-.11-.19-.17-.28l-1.81-2.54c-.05-.07-.11-.15-.17-.21l-2.89-3.25-1.32-1.47c-.1-.11-.18-.22-.26-.34l-1.12-1.78c-.04-.06-.07-.12-.1-.18l-1.7-3.29c-.05-.09-.09-.19-.13-.29l-.67-1.83c-.04-.1-.07-.2-.09-.3l-.67-2.92c-.04-.17-.06-.34-.06-.52l-.02-1.23c0-.21.02-.42.07-.62l.21-.91c.05-.23.14-.46.26-.67l.49-.86c.1-.18.23-.35.37-.5l3.73-3.91c.07-.08.15-.15.23-.21l.67-.54c.08-.07.17-.13.27-.19l.68-.42c.08-.05.15-.1.23-.16l.49-.39c.18-.14.34-.31.48-.49l.54-.73.29-.94-.04-.81-.34-1.19c-.03-.1-.06-.2-.1-.29l-.4-.95c-.02-.06-.05-.11-.08-.16l-.47-.93-.62-1.21-1.38-2.67-3.84-6.63c-.05-.08-.1-.16-.15-.23l-2.26-3.07c-.07-.1-.15-.19-.24-.28l-.72-.72-3.17-3.2c-.1-.1-.2-.19-.31-.27l-3.51-2.55s-.08-.06-.12-.09l-1.63-1.34c-.06-.05-.12-.11-.18-.16l-1.06-1.06s-.08-.09-.12-.13l-1.37-1.57-1.67-1.98c-.11-.14-.21-.29-.3-.44l-.96-1.81c-.07-.14-.13-.28-.18-.42l-.21-.68c-.05-.14-.08-.29-.1-.44l-.14-1.1,3.06,4.03c.57.75,1.23,1.42,1.96,2.01l4.61,3.67,10.26,8.23c1.01.81,1.76,1.91,2.16,3.14l4.68,14.58c.12.46.09.94-.09,1.38l-4.5,11.11c-.26.65-.24,1.38.06,2.02l9.1,19.38c1.17,2.5,1.9,5.18,2.16,7.93.02.22.01.44-.02.66l-4.96,31.62c-.52,3.34-.5,6.74.07,10.07l15.56,91.39c.01.06.02.13.02.19.15,1.86.37,3.72.65,5.56l2.66,17.46c.08.55.2,1.09.35,1.62l8.7,31.43c.77,2.77.81,5.7.13,8.49l-5.66,23.3c-.27,1.11-1.25,1.9-2.39,1.93Z" />
            <path class="cls-12"
                d="M1255.87,466.15c1.55,2.19,4.02,5.26,7.64,8.25,3.87,3.2,7.02,4.6,8.56,5.5,4.34,2.54,9.12,8.75,10.7,25.07" />
            <path class="cls-37"
                d="M1194.32,687.61l-2.99-.27.51-.25c.92-.45,1.56-1.32,1.71-2.33l.04-.28-.49-3.62.2-1.48.44-1.5,1.07-1.63c.21-.33.48-.62.78-.86l2.17-1.77-3.44,13.97Z" />
        </g>
    </g>
</svg>