<?xml version="1.0" encoding="UTF-8"?>
<svg id="Layer_2" xmlns="http://www.w3.org/2000/svg" xmlns:xlink="http://www.w3.org/1999/xlink"
    viewBox="0 0 1377.6 844.95">
    <defs>
        <style>
            .cls-1 {
            clip-path: url(#clippath-34);
            }

            .cls-2 {
            fill: #ffdd50;
            }

            .cls-3 {
            clip-path: url(#clippath-21);
            }

            .cls-4 {
            fill: #31f5ff;
            }

            .cls-5 {
            clip-path: url(#clippath-6);
            }

            .cls-6 {
            clip-path: url(#clippath-7);
            }

            .cls-7 {
            clip-path: url(#clippath-17);
            }

            .cls-8 {
            clip-path: url(#clippath-31);
            }

            .cls-9 {
            clip-path: url(#clippath-15);
            }

            .cls-10 {
            clip-path: url(#clippath-33);
            }

            .cls-11 {
            clip-path: url(#clippath-18);
            }

            .cls-12 {
            stroke: #05b4c6;
            }

            .cls-12, .cls-13, .cls-14, .cls-15, .cls-16, .cls-17, .cls-18, .cls-19, .cls-20 {
            fill: none;
            }

            .cls-12, .cls-13, .cls-15, .cls-16, .cls-17, .cls-21, .cls-19, .cls-20, .cls-22 {
            stroke-miterlimit: 10;
            }

            .cls-12, .cls-20 {
            stroke-width: 2px;
            }

            .cls-23 {
            clip-path: url(#clippath-4);
            }

            .cls-24 {
            clip-path: url(#clippath-22);
            }

            .cls-25 {
            clip-path: url(#clippath-23);
            }

            .cls-26 {
            fill: #283b44;
            }

            .cls-27, .cls-22 {
            fill: url(#New_Pattern_Swatch_1);
            }

            .cls-28 {
            clip-path: url(#clippath-9);
            }

            .cls-29 {
            clip-path: url(#clippath-10);
            }

            .cls-30 {
            fill: #fff;
            }

            .cls-31 {
            clip-path: url(#clippath-25);
            }

            .cls-32 {
            fill: #383838;
            }

            .cls-33 {
            clip-path: url(#clippath-27);
            }

            .cls-13, .cls-21 {
            stroke: #36cccc;
            }

            .cls-34 {
            clip-path: url(#clippath-11);
            }

            .cls-15 {
            stroke: #1e2f35;
            }

            .cls-15, .cls-17, .cls-22 {
            stroke-width: .25px;
            }

            .cls-35 {
            clip-path: url(#clippath-35);
            }

            .cls-16 {
            stroke: #415d72;
            }

            .cls-36 {
            clip-path: url(#clippath-28);
            }

            .cls-37 {
            fill: #05b4c6;
            }

            .cls-38 {
            fill: #f9f9f9;
            }

            .cls-39, .cls-21 {
            fill: #ffde59;
            }

            .cls-40 {
            clip-path: url(#clippath-1);
            }

            .cls-41 {
            fill: #35e5e1;
            }

            .cls-42 {
            clip-path: url(#clippath-5);
            }

            .cls-43 {
            clip-path: url(#clippath-20);
            }

            .cls-44 {
            clip-path: url(#clippath-8);
            }

            .cls-45 {
            fill: #f1f1f1;
            }

            .cls-46 {
            clip-path: url(#clippath-3);
            }

            .cls-47 {
            fill: #fa0;
            }

            .cls-48 {
            opacity: .42;
            }

            .cls-49 {
            clip-path: url(#clippath-26);
            }

            .cls-17 {
            stroke: #283b44;
            }

            .cls-50 {
            fill: #00bbce;
            }

            .cls-51 {
            clip-path: url(#clippath-12);
            }

            .cls-52 {
            clip-path: url(#clippath-14);
            }

            .cls-18 {
            clip-rule: evenodd;
            }

            .cls-53 {
            clip-path: url(#clippath-30);
            }

            .cls-54 {
            clip-path: url(#clippath-19);
            }

            .cls-55 {
            fill: #026374;
            }

            .cls-19 {
            stroke: #3f4040;
            }

            .cls-56 {
            clip-path: url(#clippath-32);
            }

            .cls-20 {
            stroke: #fa0;
            }

            .cls-57 {
            fill: #404041;
            }

            .cls-22 {
            stroke: #494949;
            }

            .cls-58 {
            fill: #0097b2;
            }

            .cls-59 {
            clip-path: url(#clippath-16);
            }

            .cls-60 {
            clip-path: url(#clippath-2);
            }

            .cls-61 {
            clip-path: url(#clippath-29);
            }

            .cls-62 {
            clip-path: url(#clippath-13);
            }

            .cls-63 {
            fill: #36cccc;
            }

            .cls-64 {
            clip-path: url(#clippath-24);
            }

            .cls-65 {
            fill: #858585;
            fill-rule: evenodd;
            }

            .cls-66 {
            clip-path: url(#clippath);
            }
        </style>
    </defs>

    <g id="Tower_Hall">
        <g>
            <path class="cls-4"
                d="M120,767.69v-89.25l13.94-24.2-.77-132.82s-6.97-6.58-9.49-6.58h-2.52v-4.07h12.78v-9.49l1.84-2.13v-72.02h9.68l9.87-68.83h7.84v11.91h91.77v-9.58h9.58l5.81,69.41h8.13v72.6l1.26,2.9v8.62h10.36v4.16s-10.65,5.32-10.16,7.94v89.06h104.11l11.62-8.86h24.1l68.68-19.89,81.9,23.23v-20.91h46.47l.58,51.98,11.33,18.01v108.81H120Z" />
            <rect class="cls-63" x="570.33" y="589.27" width="46.59" height="15.41" />
            <polygon class="cls-63"
                points="259.9 430.04 278.79 430.04 278.46 502.64 279.72 505.55 279.72 513.68 290.08 514.16 290.08 518.32 280.11 524.33 280.11 767.69 258.72 767.69 259.9 430.04" />
            <g class="cls-6">
                <g>
                    <path class="cls-55"
                        d="M315.29,680.13v-19.75s1.55-6.2,9.1-6.2,7.74,7.74,7.74,7.74v18.2h-16.84Z" />
                    <path class="cls-55"
                        d="M339.67,680.13v-19.75s1.55-6.2,9.1-6.2,7.74,7.74,7.74,7.74v18.2h-16.84Z" />
                    <path class="cls-55"
                        d="M364.04,680.13v-19.75s1.55-6.2,9.1-6.2,7.74,7.74,7.74,7.74v18.2h-16.84Z" />
                </g>
            </g>
            <rect class="cls-63" x="277.45" y="640.85" width="126.4" height="2.26" />
            <path class="cls-26"
                d="M187.16,486.05v-37.37s3.87-12.58,19.75-12.78,18.01,13.17,18.01,13.17v36.98h-37.75Z" />
            <path class="cls-63"
                d="M165.82,425.48s15.68-.58,22.07-4.94c4.01-2.74,9.86-4.33,13.65-5.13,2.39-.51,4.85-.53,7.25-.08,4.52.83,12.38,2.5,17.14,4.78,6.97,3.34,11.04,5.95,20.33,5.37,0,2.9-11.81,4.91-20.33.08-8.52-4.82-10.02-6.76-20.62-6.95-10.6-.19-17.42,6.49-17.42,6.49,0,0-11.33,6.49-22.07.39Z" />
            <path class="cls-41"
                d="M165.82,423.97s15.68-.58,22.07-4.94c4.01-2.74,9.86-4.33,13.65-5.13,2.39-.51,4.85-.53,7.25-.08,4.52.83,12.38,2.5,17.14,4.78,6.97,3.34,11.04,5.95,20.33,5.37,0,2.9-11.81,4.91-20.33.08-8.52-4.82-10.02-6.76-20.62-6.95-10.6-.19-17.42,6.49-17.42,6.49,0,0-11.33,6.49-22.07.39Z" />
            <path class="cls-41"
                d="M187.16,483.51v-37.37s3.87-12.58,19.75-12.78,18.01,13.17,18.01,13.17v36.98h-37.75Z" />
            <g>
                <g id="_x3C_Mirror_Repeat_x3E_">
                    <g class="cls-44">
                        <polyline class="cls-26"
                            points="206.04 546.43 194.33 546.43 177.77 529.88 177.77 524.46 179.47 522.76 179.47 503.93 206.04 503.93" />
                    </g>
                </g>
                <g id="_x3C_Mirror_Repeat_x3E_-2" data-name="_x3C_Mirror_Repeat_x3E_">
                    <g class="cls-28">
                        <polyline class="cls-26"
                            points="206.04 546.43 217.76 546.43 234.31 529.88 234.31 524.46 232.61 522.76 232.61 503.93 206.04 503.93" />
                    </g>
                </g>
            </g>
            <g>
                <g id="_x3C_Mirror_Repeat_x3E_-3" data-name="_x3C_Mirror_Repeat_x3E_">
                    <g class="cls-29">
                        <polyline class="cls-41"
                            points="206.04 543.9 194.33 543.9 177.77 527.34 177.77 521.92 179.47 520.23 179.47 501.4 206.04 501.4" />
                    </g>
                </g>
                <g id="_x3C_Mirror_Repeat_x3E_-4" data-name="_x3C_Mirror_Repeat_x3E_">
                    <g class="cls-34">
                        <polyline class="cls-41"
                            points="206.04 543.9 217.76 543.9 234.31 527.34 234.31 521.92 232.61 520.23 232.61 501.4 206.04 501.4" />
                    </g>
                </g>
            </g>
            <g class="cls-51">
                <g>
                    <g id="_x3C_Grid_Repeat_x3E_">
                        <path class="cls-39"
                            d="M185.68,646.61c-1.56-1.56-3.71-2.52-6.11-2.52-4.77,0-8.63,3.86-8.63,8.63v100.95h17.28v-100.95c0-2.39-.97-4.55-2.54-6.11ZM174,752.66h-1.07v-30.79h1.07v30.79ZM176.5,752.66h-1.37v-30.79h1.37v30.79ZM179,752.66h-1.37v-30.79h1.37v30.79ZM181.51,752.66h-1.39v-30.79h1.39v30.79ZM184.01,752.66h-1.37v-30.79h1.37v30.79ZM186.2,752.66h-1.07v-30.79h1.07v30.79ZM186.2,682.03h-1.07v-32.36h-1.12v32.36h-1.37v-32.36h-1.12v32.36h-1.39v-32.36h-1.12v32.36h-1.37v-32.36h-1.12v32.36h-1.37v-32.36h-1.12v32.36h-1.07v-30.79c1.07-2.8,3.64-4.77,6.64-4.77s5.57,1.97,6.64,4.77v30.79Z" />
                    </g>
                    <g id="_x3C_Grid_Repeat_x3E_-2" data-name="_x3C_Grid_Repeat_x3E_">
                        <path class="cls-39"
                            d="M212.72,646.61c-1.56-1.56-3.71-2.52-6.11-2.52-4.77,0-8.63,3.86-8.63,8.63v100.95h17.28v-100.95c0-2.39-.97-4.55-2.54-6.11ZM201.05,752.66h-1.07v-30.79h1.07v30.79ZM203.55,752.66h-1.37v-30.79h1.37v30.79ZM206.05,752.66h-1.37v-30.79h1.37v30.79ZM208.56,752.66h-1.39v-30.79h1.39v30.79ZM211.06,752.66h-1.37v-30.79h1.37v30.79ZM213.25,752.66h-1.07v-30.79h1.07v30.79ZM213.25,682.03h-1.07v-32.36h-1.12v32.36h-1.37v-32.36h-1.12v32.36h-1.39v-32.36h-1.12v32.36h-1.37v-32.36h-1.12v32.36h-1.37v-32.36h-1.12v32.36h-1.07v-30.79c1.07-2.8,3.64-4.77,6.64-4.77s5.57,1.97,6.64,4.77v30.79Z" />
                    </g>
                    <g id="_x3C_Grid_Repeat_x3E_-3" data-name="_x3C_Grid_Repeat_x3E_">
                        <path class="cls-39"
                            d="M239.77,646.61c-1.56-1.56-3.71-2.52-6.11-2.52-4.77,0-8.63,3.86-8.63,8.63v100.95h17.28v-100.95c0-2.39-.97-4.55-2.54-6.11ZM228.1,752.66h-1.07v-30.79h1.07v30.79ZM230.6,752.66h-1.37v-30.79h1.37v30.79ZM233.1,752.66h-1.37v-30.79h1.37v30.79ZM235.61,752.66h-1.39v-30.79h1.39v30.79ZM238.11,752.66h-1.37v-30.79h1.37v30.79ZM240.3,752.66h-1.07v-30.79h1.07v30.79ZM240.3,682.03h-1.07v-32.36h-1.12v32.36h-1.37v-32.36h-1.12v32.36h-1.39v-32.36h-1.12v32.36h-1.37v-32.36h-1.12v32.36h-1.37v-32.36h-1.12v32.36h-1.07v-30.79c1.07-2.8,3.64-4.77,6.64-4.77s5.57,1.97,6.64,4.77v30.79Z" />
                    </g>
                </g>
            </g>
            <g class="cls-62">
                <g>
                    <g id="_x3C_Grid_Repeat_x3E_-4" data-name="_x3C_Grid_Repeat_x3E_">
                        <path class="cls-41"
                            d="M186.75,646.82c-1.56-1.56-3.71-2.52-6.11-2.52-4.77,0-8.63,3.86-8.63,8.63v100.95h17.28v-100.95c0-2.39-.97-4.55-2.54-6.11ZM175.07,752.87h-1.07v-30.79h1.07v30.79ZM177.57,752.87h-1.37v-30.79h1.37v30.79ZM180.07,752.87h-1.37v-30.79h1.37v30.79ZM182.58,752.87h-1.39v-30.79h1.39v30.79ZM185.08,752.87h-1.37v-30.79h1.37v30.79ZM187.27,752.87h-1.07v-30.79h1.07v30.79ZM187.27,682.24h-1.07v-32.36h-1.12v32.36h-1.37v-32.36h-1.12v32.36h-1.39v-32.36h-1.12v32.36h-1.37v-32.36h-1.12v32.36h-1.37v-32.36h-1.12v32.36h-1.07v-30.79c1.07-2.8,3.64-4.77,6.64-4.77s5.57,1.97,6.64,4.77v30.79Z" />
                    </g>
                    <g id="_x3C_Grid_Repeat_x3E_-5" data-name="_x3C_Grid_Repeat_x3E_">
                        <path class="cls-41"
                            d="M213.79,646.82c-1.56-1.56-3.71-2.52-6.11-2.52-4.77,0-8.63,3.86-8.63,8.63v100.95h17.28v-100.95c0-2.39-.97-4.55-2.54-6.11ZM202.12,752.87h-1.07v-30.79h1.07v30.79ZM204.62,752.87h-1.37v-30.79h1.37v30.79ZM207.12,752.87h-1.37v-30.79h1.37v30.79ZM209.63,752.87h-1.39v-30.79h1.39v30.79ZM212.13,752.87h-1.37v-30.79h1.37v30.79ZM214.32,752.87h-1.07v-30.79h1.07v30.79ZM214.32,682.24h-1.07v-32.36h-1.12v32.36h-1.37v-32.36h-1.12v32.36h-1.39v-32.36h-1.12v32.36h-1.37v-32.36h-1.12v32.36h-1.37v-32.36h-1.12v32.36h-1.07v-30.79c1.07-2.8,3.64-4.77,6.64-4.77s5.57,1.97,6.64,4.77v30.79Z" />
                    </g>
                    <g id="_x3C_Grid_Repeat_x3E_-6" data-name="_x3C_Grid_Repeat_x3E_">
                        <path class="cls-41"
                            d="M240.84,646.82c-1.56-1.56-3.71-2.52-6.11-2.52-4.77,0-8.63,3.86-8.63,8.63v100.95h17.28v-100.95c0-2.39-.97-4.55-2.54-6.11ZM229.17,752.87h-1.07v-30.79h1.07v30.79ZM231.67,752.87h-1.37v-30.79h1.37v30.79ZM234.17,752.87h-1.37v-30.79h1.37v30.79ZM236.68,752.87h-1.39v-30.79h1.39v30.79ZM239.18,752.87h-1.37v-30.79h1.37v30.79ZM241.37,752.87h-1.07v-30.79h1.07v30.79ZM241.37,682.24h-1.07v-32.36h-1.12v32.36h-1.37v-32.36h-1.12v32.36h-1.39v-32.36h-1.12v32.36h-1.37v-32.36h-1.12v32.36h-1.37v-32.36h-1.12v32.36h-1.07v-30.79c1.07-2.8,3.64-4.77,6.64-4.77s5.57,1.97,6.64,4.77v30.79Z" />
                    </g>
                </g>
            </g>
            <g class="cls-52">
                <g>
                    <path class="cls-63"
                        d="M315.35,678.46v-19.75s1.55-6.2,9.1-6.2,7.74,7.74,7.74,7.74v18.2h-16.84Z" />
                    <path class="cls-63"
                        d="M339.73,678.46v-19.75s1.55-6.2,9.1-6.2,7.74,7.74,7.74,7.74v18.2h-16.84Z" />
                    <path class="cls-63"
                        d="M364.11,678.46v-19.75s1.55-6.2,9.1-6.2,7.74,7.74,7.74,7.74v18.2h-16.84Z" />
                </g>
            </g>
            <polyline class="cls-16"
                points="148.07 457.43 144.29 457.43 144.29 653.46 140.23 680.76 140.23 768.66" />
            <line class="cls-16" x1="403.85" y1="641.27" x2="278.33" y2="640.02" />
            <polyline class="cls-16" points="383.3 618.61 421.64 618.61 487.56 593.93 559.54 618.61" />
            <g class="cls-9">
                <g>
                    <path class="cls-55"
                        d="M430.36,657.2v-6.53s.29-9,9-9,8.46,8.46,8.46,8.46v28.23h-17.46v-21.15Z" />
                    <path class="cls-55"
                        d="M455.44,657.2v-6.53s.29-9,9-9,8.46,8.46,8.46,8.46v28.23h-17.46v-21.15Z" />
                    <path class="cls-55"
                        d="M480.53,657.2v-6.53s.29-9,9-9,8.46,8.46,8.46,8.46v28.23h-17.46v-21.15Z" />
                    <path class="cls-55"
                        d="M505.62,657.2v-6.53s.29-9,9-9,8.46,8.46,8.46,8.46v28.23h-17.46v-21.15Z" />
                    <path class="cls-55"
                        d="M530.71,657.2v-6.53s.29-9,9-9,8.46,8.46,8.46,8.46v28.23h-17.46v-21.15Z" />
                </g>
            </g>
            <g>
                <g id="_x3C_Mirror_Repeat_x3E_-5" data-name="_x3C_Mirror_Repeat_x3E_">
                    <g class="cls-59">
                        <path class="cls-55" d="M572.33,744.6h-17.55v-27.01s3.99-11.04,17.55-11.04" />
                    </g>
                </g>
                <g id="_x3C_Mirror_Repeat_x3E_-6" data-name="_x3C_Mirror_Repeat_x3E_">
                    <g class="cls-7">
                        <path class="cls-55" d="M572.33,744.6h17.55v-27.01s-3.99-11.04-17.55-11.04" />
                    </g>
                </g>
            </g>
            <g class="cls-11">
                <g>
                    <path class="cls-63"
                        d="M430.06,655.35v-6.53s.29-9,9-9,8.46,8.46,8.46,8.46v28.23h-17.46v-21.15Z" />
                    <path class="cls-63"
                        d="M455.15,655.35v-6.53s.29-9,9-9,8.46,8.46,8.46,8.46v28.23h-17.46v-21.15Z" />
                    <path class="cls-63"
                        d="M480.24,655.35v-6.53s.29-9,9-9,8.46,8.46,8.46,8.46v28.23h-17.46v-21.15Z" />
                    <path class="cls-63"
                        d="M505.33,655.35v-6.53s.29-9,9-9,8.46,8.46,8.46,8.46v28.23h-17.46v-21.15Z" />
                    <path class="cls-63"
                        d="M530.41,655.35v-6.53s.29-9,9-9,8.46,8.46,8.46,8.46v28.23h-17.46v-21.15Z" />
                </g>
            </g>
            <g>
                <g id="_x3C_Mirror_Repeat_x3E_-7" data-name="_x3C_Mirror_Repeat_x3E_">
                    <g class="cls-54">
                        <path class="cls-63" d="M572.28,742.48h-17.86v-27.01s4.07-11.04,17.86-11.04" />
                    </g>
                </g>
                <g id="_x3C_Mirror_Repeat_x3E_-8" data-name="_x3C_Mirror_Repeat_x3E_">
                    <g class="cls-43">
                        <path class="cls-63" d="M572.28,742.48h17.86v-27.01s-4.07-11.04-17.86-11.04" />
                    </g>
                </g>
            </g>
            <polyline class="cls-16"
                points="395.02 618.61 395.02 629.26 403.34 629.26 403.34 641.27" />
            <g>
                <g id="_x3C_Mirror_Repeat_x3E_-9" data-name="_x3C_Mirror_Repeat_x3E_">
                    <g class="cls-3">
                        <path class="cls-63"
                            d="M439.17,639.18c-7.99,0-10.12,10.8-10.12,10.8h-2.66s.73-16.02,12.78-16.12" />
                    </g>
                </g>
                <g id="_x3C_Mirror_Repeat_x3E_-10" data-name="_x3C_Mirror_Repeat_x3E_">
                    <g class="cls-24">
                        <path class="cls-63"
                            d="M439.17,639.18c7.99,0,10.12,10.8,10.12,10.8h2.66s-.73-16.02-12.78-16.12" />
                    </g>
                </g>
            </g>
            <g>
                <g id="_x3C_Mirror_Repeat_x3E_-11" data-name="_x3C_Mirror_Repeat_x3E_">
                    <g class="cls-25">
                        <path class="cls-63"
                            d="M464.29,639.18c-7.99,0-10.12,10.8-10.12,10.8h-2.66s.73-16.02,12.78-16.12" />
                    </g>
                </g>
                <g id="_x3C_Mirror_Repeat_x3E_-12" data-name="_x3C_Mirror_Repeat_x3E_">
                    <g class="cls-64">
                        <path class="cls-63"
                            d="M464.29,639.18c7.99,0,10.12,10.8,10.12,10.8h2.66s-.73-16.02-12.78-16.12" />
                    </g>
                </g>
            </g>
            <g class="cls-31">
                <g>
                    <path class="cls-17"
                        d="M126.2,371.36c5.15-4.93,8.49-5.37,10.58-4.88,2.92.68,3.52,3.19,6.51,3.39,3.63.24,4.48-3.36,8.41-3.53,3.95-.17,4.57,3.41,8.54,3.39,4.23-.02,5.57-4.07,9.63-3.93,2.59.09,4.65,1.83,5.97,3.25" />
                    <path class="cls-17"
                        d="M143.27,371.36c5.15-4.93,8.49-5.37,10.58-4.88,2.92.68,3.52,3.19,6.51,3.39,3.63.24,4.48-3.36,8.41-3.53,3.95-.17,4.57,3.41,8.54,3.39,4.23-.02,5.57-4.07,9.63-3.93,2.59.09,4.65,1.83,5.97,3.25" />
                    <path class="cls-17"
                        d="M160.33,371.36c5.15-4.93,8.49-5.37,10.58-4.88,2.92.68,3.52,3.19,6.51,3.39,3.63.24,4.48-3.36,8.41-3.53,3.95-.17,4.57,3.41,8.54,3.39,4.23-.02,5.57-4.07,9.63-3.93,2.59.09,4.65,1.83,5.97,3.25" />
                    <path class="cls-17"
                        d="M177.4,371.36c5.15-4.93,8.49-5.37,10.58-4.88,2.92.68,3.52,3.19,6.51,3.39,3.63.24,4.48-3.36,8.41-3.53,3.95-.17,4.57,3.41,8.54,3.39,4.23-.02,5.57-4.07,9.63-3.93,2.59.09,4.65,1.83,5.97,3.25" />
                    <path class="cls-17"
                        d="M194.47,371.36c5.15-4.93,8.49-5.37,10.58-4.88,2.92.68,3.52,3.19,6.51,3.39,3.63.24,4.48-3.36,8.41-3.53,3.95-.17,4.57,3.41,8.54,3.39,4.23-.02,5.57-4.07,9.63-3.93,2.59.09,4.65,1.83,5.97,3.25" />
                    <path class="cls-17"
                        d="M211.54,371.36c5.15-4.93,8.49-5.37,10.58-4.88,2.92.68,3.52,3.19,6.51,3.39,3.63.24,4.48-3.36,8.41-3.53,3.95-.17,4.57,3.41,8.54,3.39,4.23-.02,5.57-4.07,9.63-3.93,2.59.09,4.65,1.83,5.97,3.25" />
                    <path class="cls-17"
                        d="M228.6,371.36c5.15-4.93,8.49-5.37,10.58-4.88,2.92.68,3.52,3.19,6.51,3.39,3.63.24,4.48-3.36,8.41-3.53,3.95-.17,4.57,3.41,8.54,3.39,4.23-.02,5.57-4.07,9.63-3.93,2.59.09,4.65,1.83,5.97,3.25" />
                    <path class="cls-17"
                        d="M126.2,376.47c5.15-4.93,8.49-5.37,10.58-4.88,2.92.68,3.52,3.19,6.51,3.39,3.63.24,4.48-3.36,8.41-3.53,3.95-.17,4.57,3.41,8.54,3.39,4.23-.02,5.57-4.07,9.63-3.93,2.59.09,4.65,1.83,5.97,3.25" />
                    <path class="cls-17"
                        d="M143.27,376.47c5.15-4.93,8.49-5.37,10.58-4.88,2.92.68,3.52,3.19,6.51,3.39,3.63.24,4.48-3.36,8.41-3.53,3.95-.17,4.57,3.41,8.54,3.39,4.23-.02,5.57-4.07,9.63-3.93,2.59.09,4.65,1.83,5.97,3.25" />
                    <path class="cls-17"
                        d="M160.33,376.47c5.15-4.93,8.49-5.37,10.58-4.88,2.92.68,3.52,3.19,6.51,3.39,3.63.24,4.48-3.36,8.41-3.53,3.95-.17,4.57,3.41,8.54,3.39,4.23-.02,5.57-4.07,9.63-3.93,2.59.09,4.65,1.83,5.97,3.25" />
                    <path class="cls-17"
                        d="M177.4,376.47c5.15-4.93,8.49-5.37,10.58-4.88,2.92.68,3.52,3.19,6.51,3.39,3.63.24,4.48-3.36,8.41-3.53,3.95-.17,4.57,3.41,8.54,3.39,4.23-.02,5.57-4.07,9.63-3.93,2.59.09,4.65,1.83,5.97,3.25" />
                    <path class="cls-17"
                        d="M194.47,376.47c5.15-4.93,8.49-5.37,10.58-4.88,2.92.68,3.52,3.19,6.51,3.39,3.63.24,4.48-3.36,8.41-3.53,3.95-.17,4.57,3.41,8.54,3.39,4.23-.02,5.57-4.07,9.63-3.93,2.59.09,4.65,1.83,5.97,3.25" />
                    <path class="cls-17"
                        d="M211.54,376.47c5.15-4.93,8.49-5.37,10.58-4.88,2.92.68,3.52,3.19,6.51,3.39,3.63.24,4.48-3.36,8.41-3.53,3.95-.17,4.57,3.41,8.54,3.39,4.23-.02,5.57-4.07,9.63-3.93,2.59.09,4.65,1.83,5.97,3.25" />
                    <path class="cls-17"
                        d="M228.6,376.47c5.15-4.93,8.49-5.37,10.58-4.88,2.92.68,3.52,3.19,6.51,3.39,3.63.24,4.48-3.36,8.41-3.53,3.95-.17,4.57,3.41,8.54,3.39,4.23-.02,5.57-4.07,9.63-3.93,2.59.09,4.65,1.83,5.97,3.25" />
                    <path class="cls-17"
                        d="M126.2,381.58c5.15-4.93,8.49-5.37,10.58-4.88,2.92.68,3.52,3.19,6.51,3.39,3.63.24,4.48-3.36,8.41-3.53,3.95-.17,4.57,3.41,8.54,3.39,4.23-.02,5.57-4.07,9.63-3.93,2.59.09,4.65,1.83,5.97,3.25" />
                    <path class="cls-17"
                        d="M143.27,381.58c5.15-4.93,8.49-5.37,10.58-4.88,2.92.68,3.52,3.19,6.51,3.39,3.63.24,4.48-3.36,8.41-3.53,3.95-.17,4.57,3.41,8.54,3.39,4.23-.02,5.57-4.07,9.63-3.93,2.59.09,4.65,1.83,5.97,3.25" />
                    <path class="cls-17"
                        d="M160.33,381.58c5.15-4.93,8.49-5.37,10.58-4.88,2.92.68,3.52,3.19,6.51,3.39,3.63.24,4.48-3.36,8.41-3.53,3.95-.17,4.57,3.41,8.54,3.39,4.23-.02,5.57-4.07,9.63-3.93,2.59.09,4.65,1.83,5.97,3.25" />
                    <path class="cls-17"
                        d="M177.4,381.58c5.15-4.93,8.49-5.37,10.58-4.88,2.92.68,3.52,3.19,6.51,3.39,3.63.24,4.48-3.36,8.41-3.53,3.95-.17,4.57,3.41,8.54,3.39,4.23-.02,5.57-4.07,9.63-3.93,2.59.09,4.65,1.83,5.97,3.25" />
                    <path class="cls-17"
                        d="M194.47,381.58c5.15-4.93,8.49-5.37,10.58-4.88,2.92.68,3.52,3.19,6.51,3.39,3.63.24,4.48-3.36,8.41-3.53,3.95-.17,4.57,3.41,8.54,3.39,4.23-.02,5.57-4.07,9.63-3.93,2.59.09,4.65,1.83,5.97,3.25" />
                    <path class="cls-17"
                        d="M211.54,381.58c5.15-4.93,8.49-5.37,10.58-4.88,2.92.68,3.52,3.19,6.51,3.39,3.63.24,4.48-3.36,8.41-3.53,3.95-.17,4.57,3.41,8.54,3.39,4.23-.02,5.57-4.07,9.63-3.93,2.59.09,4.65,1.83,5.97,3.25" />
                    <path class="cls-17"
                        d="M228.6,381.58c5.15-4.93,8.49-5.37,10.58-4.88,2.92.68,3.52,3.19,6.51,3.39,3.63.24,4.48-3.36,8.41-3.53,3.95-.17,4.57,3.41,8.54,3.39,4.23-.02,5.57-4.07,9.63-3.93,2.59.09,4.65,1.83,5.97,3.25" />
                    <path class="cls-17"
                        d="M126.2,386.68c5.15-4.93,8.49-5.37,10.58-4.88,2.92.68,3.52,3.19,6.51,3.39,3.63.24,4.48-3.36,8.41-3.53,3.95-.17,4.57,3.41,8.54,3.39,4.23-.02,5.57-4.07,9.63-3.93,2.59.09,4.65,1.83,5.97,3.25" />
                    <path class="cls-17"
                        d="M143.27,386.68c5.15-4.93,8.49-5.37,10.58-4.88,2.92.68,3.52,3.19,6.51,3.39,3.63.24,4.48-3.36,8.41-3.53,3.95-.17,4.57,3.41,8.54,3.39,4.23-.02,5.57-4.07,9.63-3.93,2.59.09,4.65,1.83,5.97,3.25" />
                    <path class="cls-17"
                        d="M160.33,386.68c5.15-4.93,8.49-5.37,10.58-4.88,2.92.68,3.52,3.19,6.51,3.39,3.63.24,4.48-3.36,8.41-3.53,3.95-.17,4.57,3.41,8.54,3.39,4.23-.02,5.57-4.07,9.63-3.93,2.59.09,4.65,1.83,5.97,3.25" />
                    <path class="cls-17"
                        d="M177.4,386.68c5.15-4.93,8.49-5.37,10.58-4.88,2.92.68,3.52,3.19,6.51,3.39,3.63.24,4.48-3.36,8.41-3.53,3.95-.17,4.57,3.41,8.54,3.39,4.23-.02,5.57-4.07,9.63-3.93,2.59.09,4.65,1.83,5.97,3.25" />
                    <path class="cls-17"
                        d="M194.47,386.68c5.15-4.93,8.49-5.37,10.58-4.88,2.92.68,3.52,3.19,6.51,3.39,3.63.24,4.48-3.36,8.41-3.53,3.95-.17,4.57,3.41,8.54,3.39,4.23-.02,5.57-4.07,9.63-3.93,2.59.09,4.65,1.83,5.97,3.25" />
                    <path class="cls-17"
                        d="M211.54,386.68c5.15-4.93,8.49-5.37,10.58-4.88,2.92.68,3.52,3.19,6.51,3.39,3.63.24,4.48-3.36,8.41-3.53,3.95-.17,4.57,3.41,8.54,3.39,4.23-.02,5.57-4.07,9.63-3.93,2.59.09,4.65,1.83,5.97,3.25" />
                    <path class="cls-17"
                        d="M228.6,386.68c5.15-4.93,8.49-5.37,10.58-4.88,2.92.68,3.52,3.19,6.51,3.39,3.63.24,4.48-3.36,8.41-3.53,3.95-.17,4.57,3.41,8.54,3.39,4.23-.02,5.57-4.07,9.63-3.93,2.59.09,4.65,1.83,5.97,3.25" />
                    <path class="cls-17"
                        d="M126.2,391.79c5.15-4.93,8.49-5.37,10.58-4.88,2.92.68,3.52,3.19,6.51,3.39,3.63.24,4.48-3.36,8.41-3.53,3.95-.17,4.57,3.41,8.54,3.39,4.23-.02,5.57-4.07,9.63-3.93,2.59.09,4.65,1.83,5.97,3.25" />
                    <path class="cls-17"
                        d="M143.27,391.79c5.15-4.93,8.49-5.37,10.58-4.88,2.92.68,3.52,3.19,6.51,3.39,3.63.24,4.48-3.36,8.41-3.53,3.95-.17,4.57,3.41,8.54,3.39,4.23-.02,5.57-4.07,9.63-3.93,2.59.09,4.65,1.83,5.97,3.25" />
                    <path class="cls-17"
                        d="M160.33,391.79c5.15-4.93,8.49-5.37,10.58-4.88,2.92.68,3.52,3.19,6.51,3.39,3.63.24,4.48-3.36,8.41-3.53,3.95-.17,4.57,3.41,8.54,3.39,4.23-.02,5.57-4.07,9.63-3.93,2.59.09,4.65,1.83,5.97,3.25" />
                    <path class="cls-17"
                        d="M177.4,391.79c5.15-4.93,8.49-5.37,10.58-4.88,2.92.68,3.52,3.19,6.51,3.39,3.63.24,4.48-3.36,8.41-3.53,3.95-.17,4.57,3.41,8.54,3.39,4.23-.02,5.57-4.07,9.63-3.93,2.59.09,4.65,1.83,5.97,3.25" />
                    <path class="cls-17"
                        d="M194.47,391.79c5.15-4.93,8.49-5.37,10.58-4.88,2.92.68,3.52,3.19,6.51,3.39,3.63.24,4.48-3.36,8.41-3.53,3.95-.17,4.57,3.41,8.54,3.39,4.23-.02,5.57-4.07,9.63-3.93,2.59.09,4.65,1.83,5.97,3.25" />
                    <path class="cls-17"
                        d="M211.54,391.79c5.15-4.93,8.49-5.37,10.58-4.88,2.92.68,3.52,3.19,6.51,3.39,3.63.24,4.48-3.36,8.41-3.53,3.95-.17,4.57,3.41,8.54,3.39,4.23-.02,5.57-4.07,9.63-3.93,2.59.09,4.65,1.83,5.97,3.25" />
                    <path class="cls-17"
                        d="M228.6,391.79c5.15-4.93,8.49-5.37,10.58-4.88,2.92.68,3.52,3.19,6.51,3.39,3.63.24,4.48-3.36,8.41-3.53,3.95-.17,4.57,3.41,8.54,3.39,4.23-.02,5.57-4.07,9.63-3.93,2.59.09,4.65,1.83,5.97,3.25" />
                    <path class="cls-17"
                        d="M126.2,396.89c5.15-4.93,8.49-5.37,10.58-4.88,2.92.68,3.52,3.19,6.51,3.39,3.63.24,4.48-3.36,8.41-3.53,3.95-.17,4.57,3.41,8.54,3.39,4.23-.02,5.57-4.07,9.63-3.93,2.59.09,4.65,1.83,5.97,3.25" />
                    <path class="cls-17"
                        d="M143.27,396.89c5.15-4.93,8.49-5.37,10.58-4.88,2.92.68,3.52,3.19,6.51,3.39,3.63.24,4.48-3.36,8.41-3.53,3.95-.17,4.57,3.41,8.54,3.39,4.23-.02,5.57-4.07,9.63-3.93,2.59.09,4.65,1.83,5.97,3.25" />
                    <path class="cls-17"
                        d="M160.33,396.89c5.15-4.93,8.49-5.37,10.58-4.88,2.92.68,3.52,3.19,6.51,3.39,3.63.24,4.48-3.36,8.41-3.53,3.95-.17,4.57,3.41,8.54,3.39,4.23-.02,5.57-4.07,9.63-3.93,2.59.09,4.65,1.83,5.97,3.25" />
                    <path class="cls-17"
                        d="M177.4,396.89c5.15-4.93,8.49-5.37,10.58-4.88,2.92.68,3.52,3.19,6.51,3.39,3.63.24,4.48-3.36,8.41-3.53,3.95-.17,4.57,3.41,8.54,3.39,4.23-.02,5.57-4.07,9.63-3.93,2.59.09,4.65,1.83,5.97,3.25" />
                    <path class="cls-17"
                        d="M194.47,396.89c5.15-4.93,8.49-5.37,10.58-4.88,2.92.68,3.52,3.19,6.51,3.39,3.63.24,4.48-3.36,8.41-3.53,3.95-.17,4.57,3.41,8.54,3.39,4.23-.02,5.57-4.07,9.63-3.93,2.59.09,4.65,1.83,5.97,3.25" />
                    <path class="cls-17"
                        d="M211.54,396.89c5.15-4.93,8.49-5.37,10.58-4.88,2.92.68,3.52,3.19,6.51,3.39,3.63.24,4.48-3.36,8.41-3.53,3.95-.17,4.57,3.41,8.54,3.39,4.23-.02,5.57-4.07,9.63-3.93,2.59.09,4.65,1.83,5.97,3.25" />
                    <path class="cls-17"
                        d="M228.6,396.89c5.15-4.93,8.49-5.37,10.58-4.88,2.92.68,3.52,3.19,6.51,3.39,3.63.24,4.48-3.36,8.41-3.53,3.95-.17,4.57,3.41,8.54,3.39,4.23-.02,5.57-4.07,9.63-3.93,2.59.09,4.65,1.83,5.97,3.25" />
                    <path class="cls-17"
                        d="M126.2,402c5.15-4.93,8.49-5.37,10.58-4.88,2.92.68,3.52,3.19,6.51,3.39,3.63.24,4.48-3.36,8.41-3.53,3.95-.17,4.57,3.41,8.54,3.39,4.23-.02,5.57-4.07,9.63-3.93,2.59.09,4.65,1.83,5.97,3.25" />
                    <path class="cls-17"
                        d="M143.27,402c5.15-4.93,8.49-5.37,10.58-4.88,2.92.68,3.52,3.19,6.51,3.39,3.63.24,4.48-3.36,8.41-3.53,3.95-.17,4.57,3.41,8.54,3.39,4.23-.02,5.57-4.07,9.63-3.93,2.59.09,4.65,1.83,5.97,3.25" />
                    <path class="cls-17"
                        d="M160.33,402c5.15-4.93,8.49-5.37,10.58-4.88,2.92.68,3.52,3.19,6.51,3.39,3.63.24,4.48-3.36,8.41-3.53,3.95-.17,4.57,3.41,8.54,3.39,4.23-.02,5.57-4.07,9.63-3.93,2.59.09,4.65,1.83,5.97,3.25" />
                    <path class="cls-17"
                        d="M177.4,402c5.15-4.93,8.49-5.37,10.58-4.88,2.92.68,3.52,3.19,6.51,3.39,3.63.24,4.48-3.36,8.41-3.53,3.95-.17,4.57,3.41,8.54,3.39,4.23-.02,5.57-4.07,9.63-3.93,2.59.09,4.65,1.83,5.97,3.25" />
                    <path class="cls-17"
                        d="M194.47,402c5.15-4.93,8.49-5.37,10.58-4.88,2.92.68,3.52,3.19,6.51,3.39,3.63.24,4.48-3.36,8.41-3.53,3.95-.17,4.57,3.41,8.54,3.39,4.23-.02,5.57-4.07,9.63-3.93,2.59.09,4.65,1.83,5.97,3.25" />
                    <path class="cls-17"
                        d="M211.54,402c5.15-4.93,8.49-5.37,10.58-4.88,2.92.68,3.52,3.19,6.51,3.39,3.63.24,4.48-3.36,8.41-3.53,3.95-.17,4.57,3.41,8.54,3.39,4.23-.02,5.57-4.07,9.63-3.93,2.59.09,4.65,1.83,5.97,3.25" />
                    <path class="cls-17"
                        d="M228.6,402c5.15-4.93,8.49-5.37,10.58-4.88,2.92.68,3.52,3.19,6.51,3.39,3.63.24,4.48-3.36,8.41-3.53,3.95-.17,4.57,3.41,8.54,3.39,4.23-.02,5.57-4.07,9.63-3.93,2.59.09,4.65,1.83,5.97,3.25" />
                    <path class="cls-17"
                        d="M126.2,407.1c5.15-4.93,8.49-5.37,10.58-4.88,2.92.68,3.52,3.19,6.51,3.39,3.63.24,4.48-3.36,8.41-3.53,3.95-.17,4.57,3.41,8.54,3.39,4.23-.02,5.57-4.07,9.63-3.93,2.59.09,4.65,1.83,5.97,3.25" />
                    <path class="cls-17"
                        d="M143.27,407.1c5.15-4.93,8.49-5.37,10.58-4.88,2.92.68,3.52,3.19,6.51,3.39,3.63.24,4.48-3.36,8.41-3.53,3.95-.17,4.57,3.41,8.54,3.39,4.23-.02,5.57-4.07,9.63-3.93,2.59.09,4.65,1.83,5.97,3.25" />
                    <path class="cls-17"
                        d="M160.33,407.1c5.15-4.93,8.49-5.37,10.58-4.88,2.92.68,3.52,3.19,6.51,3.39,3.63.24,4.48-3.36,8.41-3.53,3.95-.17,4.57,3.41,8.54,3.39,4.23-.02,5.57-4.07,9.63-3.93,2.59.09,4.65,1.83,5.97,3.25" />
                    <path class="cls-17"
                        d="M177.4,407.1c5.15-4.93,8.49-5.37,10.58-4.88,2.92.68,3.52,3.19,6.51,3.39,3.63.24,4.48-3.36,8.41-3.53,3.95-.17,4.57,3.41,8.54,3.39,4.23-.02,5.57-4.07,9.63-3.93,2.59.09,4.65,1.83,5.97,3.25" />
                    <path class="cls-17"
                        d="M194.47,407.1c5.15-4.93,8.49-5.37,10.58-4.88,2.92.68,3.52,3.19,6.51,3.39,3.63.24,4.48-3.36,8.41-3.53,3.95-.17,4.57,3.41,8.54,3.39,4.23-.02,5.57-4.07,9.63-3.93,2.59.09,4.65,1.83,5.97,3.25" />
                    <path class="cls-17"
                        d="M211.54,407.1c5.15-4.93,8.49-5.37,10.58-4.88,2.92.68,3.52,3.19,6.51,3.39,3.63.24,4.48-3.36,8.41-3.53,3.95-.17,4.57,3.41,8.54,3.39,4.23-.02,5.57-4.07,9.63-3.93,2.59.09,4.65,1.83,5.97,3.25" />
                    <path class="cls-17"
                        d="M228.6,407.1c5.15-4.93,8.49-5.37,10.58-4.88,2.92.68,3.52,3.19,6.51,3.39,3.63.24,4.48-3.36,8.41-3.53,3.95-.17,4.57,3.41,8.54,3.39,4.23-.02,5.57-4.07,9.63-3.93,2.59.09,4.65,1.83,5.97,3.25" />
                    <path class="cls-17"
                        d="M126.2,412.21c5.15-4.93,8.49-5.37,10.58-4.88,2.92.68,3.52,3.19,6.51,3.39,3.63.24,4.48-3.36,8.41-3.53,3.95-.17,4.57,3.41,8.54,3.39,4.23-.02,5.57-4.07,9.63-3.93,2.59.09,4.65,1.83,5.97,3.25" />
                    <path class="cls-17"
                        d="M143.27,412.21c5.15-4.93,8.49-5.37,10.58-4.88,2.92.68,3.52,3.19,6.51,3.39,3.63.24,4.48-3.36,8.41-3.53,3.95-.17,4.57,3.41,8.54,3.39,4.23-.02,5.57-4.07,9.63-3.93,2.59.09,4.65,1.83,5.97,3.25" />
                    <path class="cls-17"
                        d="M160.33,412.21c5.15-4.93,8.49-5.37,10.58-4.88,2.92.68,3.52,3.19,6.51,3.39,3.63.24,4.48-3.36,8.41-3.53,3.95-.17,4.57,3.41,8.54,3.39,4.23-.02,5.57-4.07,9.63-3.93,2.59.09,4.65,1.83,5.97,3.25" />
                    <path class="cls-17"
                        d="M177.4,412.21c5.15-4.93,8.49-5.37,10.58-4.88,2.92.68,3.52,3.19,6.51,3.39,3.63.24,4.48-3.36,8.41-3.53,3.95-.17,4.57,3.41,8.54,3.39,4.23-.02,5.57-4.07,9.63-3.93,2.59.09,4.65,1.83,5.97,3.25" />
                    <path class="cls-17"
                        d="M194.47,412.21c5.15-4.93,8.49-5.37,10.58-4.88,2.92.68,3.52,3.19,6.51,3.39,3.63.24,4.48-3.36,8.41-3.53,3.95-.17,4.57,3.41,8.54,3.39,4.23-.02,5.57-4.07,9.63-3.93,2.59.09,4.65,1.83,5.97,3.25" />
                    <path class="cls-17"
                        d="M211.54,412.21c5.15-4.93,8.49-5.37,10.58-4.88,2.92.68,3.52,3.19,6.51,3.39,3.63.24,4.48-3.36,8.41-3.53,3.95-.17,4.57,3.41,8.54,3.39,4.23-.02,5.57-4.07,9.63-3.93,2.59.09,4.65,1.83,5.97,3.25" />
                    <path class="cls-17"
                        d="M228.6,412.21c5.15-4.93,8.49-5.37,10.58-4.88,2.92.68,3.52,3.19,6.51,3.39,3.63.24,4.48-3.36,8.41-3.53,3.95-.17,4.57,3.41,8.54,3.39,4.23-.02,5.57-4.07,9.63-3.93,2.59.09,4.65,1.83,5.97,3.25" />
                    <path class="cls-17"
                        d="M126.2,417.31c5.15-4.93,8.49-5.37,10.58-4.88,2.92.68,3.52,3.19,6.51,3.39,3.63.24,4.48-3.36,8.41-3.53,3.95-.17,4.57,3.41,8.54,3.39,4.23-.02,5.57-4.07,9.63-3.93,2.59.09,4.65,1.83,5.97,3.25" />
                    <path class="cls-17"
                        d="M143.27,417.31c5.15-4.93,8.49-5.37,10.58-4.88,2.92.68,3.52,3.19,6.51,3.39,3.63.24,4.48-3.36,8.41-3.53,3.95-.17,4.57,3.41,8.54,3.39,4.23-.02,5.57-4.07,9.63-3.93,2.59.09,4.65,1.83,5.97,3.25" />
                    <path class="cls-17"
                        d="M160.33,417.31c5.15-4.93,8.49-5.37,10.58-4.88,2.92.68,3.52,3.19,6.51,3.39,3.63.24,4.48-3.36,8.41-3.53,3.95-.17,4.57,3.41,8.54,3.39,4.23-.02,5.57-4.07,9.63-3.93,2.59.09,4.65,1.83,5.97,3.25" />
                    <path class="cls-17"
                        d="M177.4,417.31c5.15-4.93,8.49-5.37,10.58-4.88,2.92.68,3.52,3.19,6.51,3.39,3.63.24,4.48-3.36,8.41-3.53,3.95-.17,4.57,3.41,8.54,3.39,4.23-.02,5.57-4.07,9.63-3.93,2.59.09,4.65,1.83,5.97,3.25" />
                    <path class="cls-17"
                        d="M194.47,417.31c5.15-4.93,8.49-5.37,10.58-4.88,2.92.68,3.52,3.19,6.51,3.39,3.63.24,4.48-3.36,8.41-3.53,3.95-.17,4.57,3.41,8.54,3.39,4.23-.02,5.57-4.07,9.63-3.93,2.59.09,4.65,1.83,5.97,3.25" />
                    <path class="cls-17"
                        d="M211.54,417.31c5.15-4.93,8.49-5.37,10.58-4.88,2.92.68,3.52,3.19,6.51,3.39,3.63.24,4.48-3.36,8.41-3.53,3.95-.17,4.57,3.41,8.54,3.39,4.23-.02,5.57-4.07,9.63-3.93,2.59.09,4.65,1.83,5.97,3.25" />
                    <path class="cls-17"
                        d="M228.6,417.31c5.15-4.93,8.49-5.37,10.58-4.88,2.92.68,3.52,3.19,6.51,3.39,3.63.24,4.48-3.36,8.41-3.53,3.95-.17,4.57,3.41,8.54,3.39,4.23-.02,5.57-4.07,9.63-3.93,2.59.09,4.65,1.83,5.97,3.25" />
                </g>
            </g>
            <g>
                <g id="_x3C_Mirror_Repeat_x3E_-13" data-name="_x3C_Mirror_Repeat_x3E_">
                    <g class="cls-49">
                        <path class="cls-63"
                            d="M489.21,639.18c-7.99,0-10.12,10.8-10.12,10.8h-2.66s.73-16.02,12.78-16.12" />
                    </g>
                </g>
                <g id="_x3C_Mirror_Repeat_x3E_-14" data-name="_x3C_Mirror_Repeat_x3E_">
                    <g class="cls-33">
                        <path class="cls-63"
                            d="M489.21,639.18c7.99,0,10.12,10.8,10.12,10.8h2.66s-.73-16.02-12.78-16.12" />
                    </g>
                </g>
            </g>
            <g>
                <g id="_x3C_Mirror_Repeat_x3E_-15" data-name="_x3C_Mirror_Repeat_x3E_">
                    <g class="cls-36">
                        <path class="cls-63"
                            d="M514.32,639.18c-7.99,0-10.12,10.8-10.12,10.8h-2.66s.73-16.02,12.78-16.12" />
                    </g>
                </g>
                <g id="_x3C_Mirror_Repeat_x3E_-16" data-name="_x3C_Mirror_Repeat_x3E_">
                    <g class="cls-61">
                        <path class="cls-63"
                            d="M514.32,639.18c7.99,0,10.12,10.8,10.12,10.8h2.66s-.73-16.02-12.78-16.12" />
                    </g>
                </g>
            </g>
            <g>
                <g id="_x3C_Mirror_Repeat_x3E_-17" data-name="_x3C_Mirror_Repeat_x3E_">
                    <g class="cls-53">
                        <path class="cls-63"
                            d="M539.87,639.18c-7.99,0-10.12,10.8-10.12,10.8h-2.66s.73-16.02,12.78-16.12" />
                    </g>
                </g>
                <g id="_x3C_Mirror_Repeat_x3E_-18" data-name="_x3C_Mirror_Repeat_x3E_">
                    <g class="cls-8">
                        <path class="cls-63"
                            d="M539.87,639.18c7.99,0,10.12,10.8,10.12,10.8h2.66s-.73-16.02-12.78-16.12" />
                    </g>
                </g>
            </g>
            <line class="cls-16" x1="157.07" y1="418.52" x2="160.27" y2="359.27" />
            <path class="cls-55"
                d="M580.85,620.29h22.94s-.44-12.12-12.12-12.12-10.82,12.12-10.82,12.12Z" />
            <path class="cls-21"
                d="M580.85,618.4h22.94s-.44-12.12-12.12-12.12-10.82,12.12-10.82,12.12Z" />
            <rect class="cls-55" x="304.42" y="714.85" width="19.46" height="31.66" />
            <g class="cls-56">
                <g>
                    <path class="cls-17"
                        d="M540.01,592.03c4.58-4.39,7.56-4.78,9.42-4.35,2.6.6,3.13,2.84,5.8,3.02,3.24.21,3.99-2.99,7.49-3.14,3.51-.15,4.07,3.03,7.61,3.02,3.76-.02,4.96-3.63,8.58-3.5,2.31.08,4.14,1.63,5.31,2.9" />
                    <path class="cls-17"
                        d="M555.23,592.03c4.58-4.39,7.56-4.78,9.42-4.35,2.6.6,3.13,2.84,5.8,3.02,3.24.21,3.99-2.99,7.49-3.14,3.51-.15,4.07,3.03,7.61,3.02,3.76-.02,4.96-3.63,8.58-3.5,2.31.08,4.14,1.63,5.31,2.9" />
                    <path class="cls-17"
                        d="M570.45,592.03c4.58-4.39,7.56-4.78,9.42-4.35,2.6.6,3.13,2.84,5.8,3.02,3.24.21,3.99-2.99,7.49-3.14,3.51-.15,4.07,3.03,7.61,3.02,3.76-.02,4.96-3.63,8.58-3.5,2.31.08,4.14,1.63,5.31,2.9" />
                    <path class="cls-17"
                        d="M585.67,592.03c4.58-4.39,7.56-4.78,9.42-4.35,2.6.6,3.13,2.84,5.8,3.02,3.24.21,3.99-2.99,7.49-3.14,3.51-.15,4.07,3.03,7.61,3.02,3.76-.02,4.96-3.63,8.58-3.5,2.31.08,4.14,1.63,5.31,2.9" />
                    <path class="cls-17"
                        d="M540.01,594.66c4.58-4.39,7.56-4.78,9.42-4.35,2.6.6,3.13,2.84,5.8,3.02,3.24.21,3.99-2.99,7.49-3.14,3.51-.15,4.07,3.03,7.61,3.02,3.76-.02,4.96-3.63,8.58-3.5,2.31.08,4.14,1.63,5.31,2.9" />
                    <path class="cls-17"
                        d="M555.23,594.66c4.58-4.39,7.56-4.78,9.42-4.35,2.6.6,3.13,2.84,5.8,3.02,3.24.21,3.99-2.99,7.49-3.14,3.51-.15,4.07,3.03,7.61,3.02,3.76-.02,4.96-3.63,8.58-3.5,2.31.08,4.14,1.63,5.31,2.9" />
                    <path class="cls-17"
                        d="M570.45,594.66c4.58-4.39,7.56-4.78,9.42-4.35,2.6.6,3.13,2.84,5.8,3.02,3.24.21,3.99-2.99,7.49-3.14,3.51-.15,4.07,3.03,7.61,3.02,3.76-.02,4.96-3.63,8.58-3.5,2.31.08,4.14,1.63,5.31,2.9" />
                    <path class="cls-17"
                        d="M585.67,594.66c4.58-4.39,7.56-4.78,9.42-4.35,2.6.6,3.13,2.84,5.8,3.02,3.24.21,3.99-2.99,7.49-3.14,3.51-.15,4.07,3.03,7.61,3.02,3.76-.02,4.96-3.63,8.58-3.5,2.31.08,4.14,1.63,5.31,2.9" />
                    <path class="cls-17"
                        d="M540.01,597.29c4.58-4.39,7.56-4.78,9.42-4.35,2.6.6,3.13,2.84,5.8,3.02,3.24.21,3.99-2.99,7.49-3.14,3.51-.15,4.07,3.03,7.61,3.02,3.76-.02,4.96-3.63,8.58-3.5,2.31.08,4.14,1.63,5.31,2.9" />
                    <path class="cls-17"
                        d="M555.23,597.29c4.58-4.39,7.56-4.78,9.42-4.35,2.6.6,3.13,2.84,5.8,3.02,3.24.21,3.99-2.99,7.49-3.14,3.51-.15,4.07,3.03,7.61,3.02,3.76-.02,4.96-3.63,8.58-3.5,2.31.08,4.14,1.63,5.31,2.9" />
                    <path class="cls-17"
                        d="M570.45,597.29c4.58-4.39,7.56-4.78,9.42-4.35,2.6.6,3.13,2.84,5.8,3.02,3.24.21,3.99-2.99,7.49-3.14,3.51-.15,4.07,3.03,7.61,3.02,3.76-.02,4.96-3.63,8.58-3.5,2.31.08,4.14,1.63,5.31,2.9" />
                    <path class="cls-17"
                        d="M585.67,597.29c4.58-4.39,7.56-4.78,9.42-4.35,2.6.6,3.13,2.84,5.8,3.02,3.24.21,3.99-2.99,7.49-3.14,3.51-.15,4.07,3.03,7.61,3.02,3.76-.02,4.96-3.63,8.58-3.5,2.31.08,4.14,1.63,5.31,2.9" />
                    <path class="cls-17"
                        d="M540.01,599.92c4.58-4.39,7.56-4.78,9.42-4.35,2.6.6,3.13,2.84,5.8,3.02,3.24.21,3.99-2.99,7.49-3.14,3.51-.15,4.07,3.03,7.61,3.02,3.76-.02,4.96-3.63,8.58-3.5,2.31.08,4.14,1.63,5.31,2.9" />
                    <path class="cls-17"
                        d="M555.23,599.92c4.58-4.39,7.56-4.78,9.42-4.35,2.6.6,3.13,2.84,5.8,3.02,3.24.21,3.99-2.99,7.49-3.14,3.51-.15,4.07,3.03,7.61,3.02,3.76-.02,4.96-3.63,8.58-3.5,2.31.08,4.14,1.63,5.31,2.9" />
                    <path class="cls-17"
                        d="M570.45,599.92c4.58-4.39,7.56-4.78,9.42-4.35,2.6.6,3.13,2.84,5.8,3.02,3.24.21,3.99-2.99,7.49-3.14,3.51-.15,4.07,3.03,7.61,3.02,3.76-.02,4.96-3.63,8.58-3.5,2.31.08,4.14,1.63,5.31,2.9" />
                    <path class="cls-17"
                        d="M585.67,599.92c4.58-4.39,7.56-4.78,9.42-4.35,2.6.6,3.13,2.84,5.8,3.02,3.24.21,3.99-2.99,7.49-3.14,3.51-.15,4.07,3.03,7.61,3.02,3.76-.02,4.96-3.63,8.58-3.5,2.31.08,4.14,1.63,5.31,2.9" />
                    <path class="cls-17"
                        d="M540.01,602.55c4.58-4.39,7.56-4.78,9.42-4.35,2.6.6,3.13,2.84,5.8,3.02,3.24.21,3.99-2.99,7.49-3.14,3.51-.15,4.07,3.03,7.61,3.02,3.76-.02,4.96-3.63,8.58-3.5,2.31.08,4.14,1.63,5.31,2.9" />
                    <path class="cls-17"
                        d="M555.23,602.55c4.58-4.39,7.56-4.78,9.42-4.35,2.6.6,3.13,2.84,5.8,3.02,3.24.21,3.99-2.99,7.49-3.14,3.51-.15,4.07,3.03,7.61,3.02,3.76-.02,4.96-3.63,8.58-3.5,2.31.08,4.14,1.63,5.31,2.9" />
                    <path class="cls-17"
                        d="M570.45,602.55c4.58-4.39,7.56-4.78,9.42-4.35,2.6.6,3.13,2.84,5.8,3.02,3.24.21,3.99-2.99,7.49-3.14,3.51-.15,4.07,3.03,7.61,3.02,3.76-.02,4.96-3.63,8.58-3.5,2.31.08,4.14,1.63,5.31,2.9" />
                    <path class="cls-17"
                        d="M585.67,602.55c4.58-4.39,7.56-4.78,9.42-4.35,2.6.6,3.13,2.84,5.8,3.02,3.24.21,3.99-2.99,7.49-3.14,3.51-.15,4.07,3.03,7.61,3.02,3.76-.02,4.96-3.63,8.58-3.5,2.31.08,4.14,1.63,5.31,2.9" />
                    <path class="cls-17"
                        d="M540.01,605.18c4.58-4.39,7.56-4.78,9.42-4.35,2.6.6,3.13,2.84,5.8,3.02,3.24.21,3.99-2.99,7.49-3.14,3.51-.15,4.07,3.03,7.61,3.02,3.76-.02,4.96-3.63,8.58-3.5,2.31.08,4.14,1.63,5.31,2.9" />
                    <path class="cls-17"
                        d="M555.23,605.18c4.58-4.39,7.56-4.78,9.42-4.35,2.6.6,3.13,2.84,5.8,3.02,3.24.21,3.99-2.99,7.49-3.14,3.51-.15,4.07,3.03,7.61,3.02,3.76-.02,4.96-3.63,8.58-3.5,2.31.08,4.14,1.63,5.31,2.9" />
                    <path class="cls-17"
                        d="M570.45,605.18c4.58-4.39,7.56-4.78,9.42-4.35,2.6.6,3.13,2.84,5.8,3.02,3.24.21,3.99-2.99,7.49-3.14,3.51-.15,4.07,3.03,7.61,3.02,3.76-.02,4.96-3.63,8.58-3.5,2.31.08,4.14,1.63,5.31,2.9" />
                    <path class="cls-17"
                        d="M585.67,605.18c4.58-4.39,7.56-4.78,9.42-4.35,2.6.6,3.13,2.84,5.8,3.02,3.24.21,3.99-2.99,7.49-3.14,3.51-.15,4.07,3.03,7.61,3.02,3.76-.02,4.96-3.63,8.58-3.5,2.31.08,4.14,1.63,5.31,2.9" />
                    <path class="cls-17"
                        d="M540.01,607.81c4.58-4.39,7.56-4.78,9.42-4.35,2.6.6,3.13,2.84,5.8,3.02,3.24.21,3.99-2.99,7.49-3.14,3.51-.15,4.07,3.03,7.61,3.02,3.76-.02,4.96-3.63,8.58-3.5,2.31.08,4.14,1.63,5.31,2.9" />
                    <path class="cls-17"
                        d="M555.23,607.81c4.58-4.39,7.56-4.78,9.42-4.35,2.6.6,3.13,2.84,5.8,3.02,3.24.21,3.99-2.99,7.49-3.14,3.51-.15,4.07,3.03,7.61,3.02,3.76-.02,4.96-3.63,8.58-3.5,2.31.08,4.14,1.63,5.31,2.9" />
                    <path class="cls-17"
                        d="M570.45,607.81c4.58-4.39,7.56-4.78,9.42-4.35,2.6.6,3.13,2.84,5.8,3.02,3.24.21,3.99-2.99,7.49-3.14,3.51-.15,4.07,3.03,7.61,3.02,3.76-.02,4.96-3.63,8.58-3.5,2.31.08,4.14,1.63,5.31,2.9" />
                    <path class="cls-17"
                        d="M585.67,607.81c4.58-4.39,7.56-4.78,9.42-4.35,2.6.6,3.13,2.84,5.8,3.02,3.24.21,3.99-2.99,7.49-3.14,3.51-.15,4.07,3.03,7.61,3.02,3.76-.02,4.96-3.63,8.58-3.5,2.31.08,4.14,1.63,5.31,2.9" />
                </g>
            </g>
            <g>
                <path class="cls-41" d="M489.4,694.41c35.43,0,38.04,38.04,38.04,38.04v36.21h-38.04" />
                <path class="cls-41"
                    d="M490.09,694.41c-35.43,0-38.04,38.04-38.04,38.04v36.21s38.04,0,38.04,0" />
            </g>
            <path class="cls-13"
                d="M312.4,649.93c2.46-1.67,6.2-3.61,10.6-3.27,4.22.33,4.81,2.42,9.15,3.19,6.93,1.24,8.63-3.55,15.97-2.9,6.13.54,6.61,4.02,12.12,3.7,5.01-.29,6.1-3.25,11.04-3.92,2.93-.39,7.15.02,12.71,3.78" />
            <g>
                <path class="cls-63" d="M489.41,695.28c34.95,0,37.52,37.52,37.52,37.52v35.71h-37.52" />
                <path class="cls-63"
                    d="M490.08,695.28c-34.95,0-37.52,37.52-37.52,37.52v35.71s37.52,0,37.52,0" />
            </g>
            <g>
                <path class="cls-63" d="M489.43,699.18c32.84,0,35.26,35.26,35.26,35.26v33.56h-35.26" />
                <path class="cls-63"
                    d="M490.06,699.18c-32.84,0-35.26,35.26-35.26,35.26v33.56s35.26,0,35.26,0" />
            </g>
            <g class="cls-10">
                <g>
                    <g id="_x3C_Grid_Repeat_x3E_-7" data-name="_x3C_Grid_Repeat_x3E_">
                        <g>
                            <path class="cls-55"
                                d="M329,658.66v-1.3h-1v1.3h-1.23v-1.3h-1v1.3h-1.23v-1.3h-1v1.3h-1.23v-1.3h-1v1.3h-1.23v-1.3h-1v1.3h-.95c.95-2.32,3.23-3.96,5.9-3.96s4.95,1.64,5.9,3.96h-.95Z" />
                            <rect class="cls-55" x="318.14" y="658.66" width=".95" height="4.5" />
                            <rect class="cls-55" x="320.09" y="658.66" width="1.23" height="4.5" />
                            <rect class="cls-55" x="322.32" y="658.66" width="1.23" height="4.5" />
                            <rect class="cls-55" x="324.54" y="658.66" width="1.23" height="4.5" />
                            <rect class="cls-55" x="326.77" y="658.66" width="1.23" height="4.5" />
                            <rect class="cls-55" x="329" y="658.66" width=".95" height="4.5" />
                        </g>
                    </g>
                    <g id="_x3C_Grid_Repeat_x3E_-8" data-name="_x3C_Grid_Repeat_x3E_">
                        <g>
                            <path class="cls-55"
                                d="M353.29,658.66v-1.3h-1v1.3h-1.23v-1.3h-1v1.3h-1.23v-1.3h-1v1.3h-1.23v-1.3h-1v1.3h-1.23v-1.3h-1v1.3h-.95c.95-2.32,3.23-3.96,5.9-3.96s4.95,1.64,5.9,3.96h-.95Z" />
                            <rect class="cls-55" x="342.43" y="658.66" width=".95" height="4.5" />
                            <rect class="cls-55" x="344.38" y="658.66" width="1.23" height="4.5" />
                            <rect class="cls-55" x="346.61" y="658.66" width="1.23" height="4.5" />
                            <rect class="cls-55" x="348.84" y="658.66" width="1.23" height="4.5" />
                            <rect class="cls-55" x="351.06" y="658.66" width="1.23" height="4.5" />
                            <rect class="cls-55" x="353.29" y="658.66" width=".95" height="4.5" />
                        </g>
                    </g>
                    <g id="_x3C_Grid_Repeat_x3E_-9" data-name="_x3C_Grid_Repeat_x3E_">
                        <g>
                            <path class="cls-55"
                                d="M377.58,658.66v-1.3h-1v1.3h-1.23v-1.3h-1v1.3h-1.23v-1.3h-1v1.3h-1.23v-1.3h-1v1.3h-1.23v-1.3h-1v1.3h-.95c.95-2.32,3.23-3.96,5.9-3.96s4.95,1.64,5.9,3.96h-.95Z" />
                            <rect class="cls-55" x="366.72" y="658.66" width=".95" height="4.5" />
                            <rect class="cls-55" x="368.67" y="658.66" width="1.23" height="4.5" />
                            <rect class="cls-55" x="370.9" y="658.66" width="1.23" height="4.5" />
                            <rect class="cls-55" x="373.13" y="658.66" width="1.23" height="4.5" />
                            <rect class="cls-55" x="375.36" y="658.66" width="1.23" height="4.5" />
                            <rect class="cls-55" x="377.58" y="658.66" width=".95" height="4.5" />
                        </g>
                    </g>
                </g>
            </g>
            <rect class="cls-39" x="318.07" y="663.16" width="11.62" height="12.88" />
            <rect class="cls-39" x="342.39" y="663.16" width="11.62" height="12.88" />
            <rect class="cls-39" x="366.78" y="663.16" width="11.62" height="12.88" />
            <line class="cls-19" x1="178.74" y1="520.23" x2="233.34" y2="520.23" />
            <line class="cls-19" x1="187.16" y1="469.87" x2="224.92" y2="469.87" />
            <g>
                <path class="cls-26"
                    d="M194.07,440.89h3.99c1.33,0,2.41,1.08,2.41,2.41v22.86h-8.8v-22.86c0-1.33,1.08-2.41,2.41-2.41Z" />
                <path class="cls-26"
                    d="M211.5,440.89h3.99c1.33,0,2.41,1.08,2.41,2.41v22.86h-8.8v-22.86c0-1.33,1.08-2.41,2.41-2.41Z" />
            </g>
            <g>
                <path class="cls-39"
                    d="M195.33,439.62h3.99c1.33,0,2.41,1.08,2.41,2.41v22.86h-8.8v-22.86c0-1.33,1.08-2.41,2.41-2.41Z" />
                <path class="cls-39"
                    d="M212.76,439.62h3.99c1.33,0,2.41,1.08,2.41,2.41v22.86h-8.8v-22.86c0-1.33,1.08-2.41,2.41-2.41Z" />
            </g>
            <g class="cls-1">
                <g>
                    <g id="_x3C_Grid_Repeat_x3E_-10" data-name="_x3C_Grid_Repeat_x3E_">
                        <g>
                            <path class="cls-32"
                                d="M565.66,716.58v-1.21h-.93v1.21h-1.14v-1.21h-.93v1.21h-1.14v-1.21h-.93v1.21h-1.14v-1.21h-.93v1.21h-1.14v-1.21h-.93v1.21h-.88c.88-2.16,3-3.68,5.48-3.68s4.6,1.52,5.49,3.68h-.88Z" />
                            <rect class="cls-32" x="555.57" y="716.58" width=".88" height="4.18" />
                            <rect class="cls-32" x="557.38" y="716.58" width="1.14" height="4.18" />
                            <rect class="cls-32" x="559.45" y="716.58" width="1.14" height="4.18" />
                            <rect class="cls-32" x="561.52" y="716.58" width="1.14" height="4.18" />
                            <rect class="cls-32" x="563.59" y="716.58" width="1.14" height="4.18" />
                            <rect class="cls-32" x="565.66" y="716.58" width=".88" height="4.18" />
                        </g>
                    </g>
                    <g id="_x3C_Grid_Repeat_x3E_-11" data-name="_x3C_Grid_Repeat_x3E_">
                        <g>
                            <path class="cls-32"
                                d="M588.22,716.58v-1.21h-.93v1.21h-1.14v-1.21h-.93v1.21h-1.14v-1.21h-.93v1.21h-1.14v-1.21h-.93v1.21h-1.14v-1.21h-.93v1.21h-.88c.88-2.16,3-3.68,5.48-3.68s4.6,1.52,5.49,3.68h-.88Z" />
                            <rect class="cls-32" x="578.14" y="716.58" width=".88" height="4.18" />
                            <rect class="cls-32" x="579.94" y="716.58" width="1.14" height="4.18" />
                            <rect class="cls-32" x="582.01" y="716.58" width="1.14" height="4.18" />
                            <rect class="cls-32" x="584.08" y="716.58" width="1.14" height="4.18" />
                            <rect class="cls-32" x="586.15" y="716.58" width="1.14" height="4.18" />
                            <rect class="cls-32" x="588.22" y="716.58" width=".88" height="4.18" />
                        </g>
                    </g>
                </g>
            </g>
            <rect class="cls-39" x="578.28" y="720.22" width="10.8" height="11.97" />
            <rect class="cls-39" x="555.49" y="720.22" width="10.8" height="11.97" />
            <polygon class="cls-22"
                points="402.57 640.69 280.63 640.02 280.63 615.32 384.38 615.32 384.34 619.29 394.21 619.39 395.16 629.94 402.57 629.94 402.57 640.69" />
            <polygon class="cls-27"
                points="421.6 618.07 384.39 617.69 384.03 615.32 395.65 606.47 419.5 606.63 488.44 586.57 570.33 609.81 560.46 618.07 487.56 593.93 421.6 618.07" />
            <path class="cls-39"
                d="M436.15,645.36h6.23c2.07,0,3.76,1.68,3.76,3.76v27.1h-13.74v-27.1c0-2.07,1.68-3.76,3.76-3.76Z" />
            <path class="cls-39"
                d="M461.18,644.49h6.23c2.07,0,3.76,1.68,3.76,3.76v27.1h-13.74v-27.1c0-2.07,1.68-3.76,3.76-3.76Z" />
            <path class="cls-39"
                d="M485.75,644.13h6.23c2.07,0,3.76,1.68,3.76,3.76v27.1h-13.74v-27.1c0-2.07,1.68-3.76,3.76-3.76Z" />
            <path class="cls-39"
                d="M511.21,644.13h6.23c2.07,0,3.76,1.68,3.76,3.76v27.1h-13.74v-27.1c0-2.07,1.68-3.76,3.76-3.76Z" />
            <path class="cls-39"
                d="M536.76,644.13h6.23c2.07,0,3.76,1.68,3.76,3.76v27.1h-13.74v-27.1c0-2.07,1.68-3.76,3.76-3.76Z" />
            <line class="cls-16" x1="270.04" y1="439.62" x2="270.04" y2="609.9" />
            <polygon class="cls-63"
                points="293.61 768.18 280.16 768.18 279.14 656.56 293.66 676.99 293.61 768.18" />
            <polygon class="cls-63"
                points="422.11 620.93 395.68 620.93 395.68 619.16 422.15 619.16 487.61 594.61 559.33 619.16 558.79 620.42 487.61 595.58 422.11 620.93" />
            <polygon class="cls-63"
                points="615.42 641.27 617.38 641.27 628.71 658.89 628.71 767.69 615.42 767.69 615.42 641.27" />
            <rect class="cls-63" x="592.89" y="582.19" width="1.55" height="46.66"
                transform="translate(1199.18 11.86) rotate(90)" />
            <rect class="cls-63" x="615.42" y="610.41" width="1.96" height="30.86" />
            <polygon class="cls-63"
                points="269.77 610.05 261.6 610.05 262.98 452.34 269.77 439.64 269.77 610.05" />
            <polygon class="cls-63"
                points="270.33 430.04 259.9 430.04 254.94 360.63 264.53 360.63 270.33 430.04" />
            <polyline class="cls-16" points="278.76 656.08 293.28 676.5 293.28 768.66" />
            <polygon class="cls-58"
                points="121.7 675.48 120 678.44 120 767.69 121.7 767.69 121.7 675.48" />
            <rect class="cls-39" x="304.42" y="712.93" width="19.46" height="31.66" />
        </g>
    </g>
</svg>